<svg width="23" height="15" viewBox="0 0 23 15" fill="none" xmlns="http://www.w3.org/2000/svg">
<path d="M5.20001 1L5.20001 14L3.00001 14C1.89544 14 1.00001 13.1046 1.00001 12L1.00001 3C1.00001 1.89543 1.89544 1 3.00001 1L5.20001 1Z" stroke="#20AE8E" stroke-linecap="round" stroke-linejoin="round"/>
<rect x="9.39996" y="1" width="13" height="4.2" transform="rotate(90 9.39996 1)" stroke="#20AE8E" stroke-linecap="round" stroke-linejoin="round"/>
<rect x="13.6" y="1" width="13" height="4.2" transform="rotate(90 13.6 1)" stroke="#20AE8E" stroke-linecap="round" stroke-linejoin="round"/>
<rect x="17.8" y="1" width="13" height="4.2" transform="rotate(90 17.8 1)" stroke="#20AE8E" stroke-linecap="round" stroke-linejoin="round"/>
<path d="M20 1C21.1046 1 22 1.89543 22 3L22 12C22 13.1046 21.1046 14 20 14L17.8 14L17.8 1L20 1Z" stroke="#20AE8E" stroke-linecap="round" stroke-linejoin="round"/>
</svg>
