<svg width="28" height="29" viewBox="0 0 28 29" fill="none" xmlns="http://www.w3.org/2000/svg">
<path d="M8.16666 1H4.66666C2.08932 1 -1.52588e-05 3.08933 -1.52588e-05 5.66666V9.16665C-1.52588e-05 11.744 2.08932 13.8333 4.66666 13.8333H8.16666C10.744 13.8333 12.8333 11.744 12.8333 9.16665V5.66666C12.8333 3.08933 10.744 1 8.16666 1Z" fill="#2A393F"/>
<path d="M8.16666 16.1665H4.66666C2.08932 16.1665 -1.52588e-05 18.2558 -1.52588e-05 20.8332V24.3332C-1.52588e-05 26.9105 2.08932 28.9998 4.66666 28.9998H8.16666C10.744 28.9998 12.8333 26.9105 12.8333 24.3332V20.8332C12.8333 18.2558 10.744 16.1665 8.16666 16.1665Z" fill="#2A393F"/>
<path d="M26.0085 23.3133L23.3333 25.985V4.0143L26.0085 6.68597C26.1169 6.79429 26.2456 6.8802 26.3872 6.93879C26.5287 6.99738 26.6805 7.02751 26.8337 7.02745C26.987 7.0274 27.1387 6.99716 27.2803 6.93847C27.4218 6.87978 27.5504 6.79378 27.6587 6.68538C27.7671 6.57699 27.853 6.44832 27.9116 6.30673C27.9702 6.16513 28.0003 6.01338 28.0002 5.86014C28.0002 5.7069 27.9699 5.55517 27.9112 5.41362C27.8526 5.27206 27.7666 5.14345 27.6582 5.03513L24.64 2.02163C23.9837 1.3662 23.0942 0.998047 22.1667 0.998047C21.2392 0.998047 20.3496 1.3662 19.6933 2.02163L16.6752 5.03513C16.5668 5.14345 16.4808 5.27206 16.4221 5.41362C16.3634 5.55517 16.3332 5.7069 16.3331 5.86014C16.333 6.01338 16.3632 6.16513 16.4218 6.30673C16.4804 6.44832 16.5663 6.57699 16.6746 6.68538C16.7829 6.79378 16.9115 6.87978 17.0531 6.93847C17.1946 6.99716 17.3463 7.0274 17.4996 7.02745C17.6528 7.02751 17.8046 6.99738 17.9462 6.93879C18.0878 6.8802 18.2164 6.79429 18.3248 6.68597L21 4.0143V25.985L18.3248 23.3133C18.2164 23.205 18.0876 23.1191 17.946 23.0605C17.8043 23.002 17.6525 22.9719 17.4992 22.972C17.3459 22.9721 17.1941 23.0024 17.0525 23.0612C16.9109 23.1199 16.7823 23.206 16.674 23.3145C16.5657 23.4229 16.4798 23.5517 16.4212 23.6934C16.3627 23.835 16.3326 23.9868 16.3327 24.1401C16.3328 24.2934 16.3631 24.4452 16.4219 24.5868C16.4806 24.7284 16.5667 24.857 16.6752 24.9653L19.6933 27.9788C20.3505 28.6325 21.2397 28.9995 22.1667 28.9995C23.0936 28.9995 23.9828 28.6325 24.64 27.9788L27.6582 24.9653C27.8772 24.7465 28.0004 24.4497 28.0006 24.1401C28.0009 23.8305 27.8781 23.5335 27.6593 23.3145C27.4406 23.0954 27.1437 22.9722 26.8342 22.972C26.5246 22.9718 26.2276 23.0945 26.0085 23.3133Z" fill="#2A393F"/>
</svg>
