<?xml version="1.0" encoding="utf-8"?>
<!-- Generator: Adobe Illustrator 21.0.0, SVG Export Plug-In . SVG Version: 6.00 Build 0)  -->
<svg version="1.1" id="Layer_1" xmlns="http://www.w3.org/2000/svg" xmlns:xlink="http://www.w3.org/1999/xlink" x="0px" y="0px"
	 viewBox="0 0 8.8 4.4" style="enable-background:new 0 0 8.8 4.4;" xml:space="preserve">
<style type="text/css">
	.st0{fill:#2B393F;}
</style>
<path class="st0" d="M8.8,0.7c0,0.1,0,0.2-0.1,0.3S8.6,1.2,8.5,1.2l-3.8,3C4.7,4.3,4.5,4.4,4.4,4.4C4.2,4.4,4.1,4.3,4,4.2L0.2,1.1
	C0.1,1,0,0.8,0,0.7c0-0.2,0-0.3,0.1-0.5C0.3,0.1,0.4,0,0.6,0C0.7,0,0.9,0,1,0.1l3.3,2.8l3.3-2.7C7.8,0.2,7.9,0.1,8,0.1
	c0.1,0,0.2,0,0.3,0.1c0.1,0.1,0.2,0.1,0.3,0.2C8.7,0.5,8.8,0.6,8.8,0.7z"/>
</svg>
