<?xml version="1.0" encoding="utf-8"?>
<!-- Generator: Adobe Illustrator 21.0.0, SVG Export Plug-In . SVG Version: 6.00 Build 0)  -->
<svg version="1.1" id="Layer_1" xmlns="http://www.w3.org/2000/svg" xmlns:xlink="http://www.w3.org/1999/xlink" x="0px" y="0px"
	 viewBox="0 0 9.3 18.7" style="enable-background:new 0 0 9.3 18.7;" xml:space="preserve">
<style type="text/css">
	.st0{fill:#FFFFFF;}
</style>
<path class="st0" d="M7.3,17.7c-0.2,0-0.3,0-0.5-0.1c-0.2-0.1-0.3-0.2-0.4-0.3L1,10.6c-0.2-0.2-0.3-0.5-0.3-0.7
	c0-0.3,0.1-0.5,0.3-0.7l5.6-6.7C6.8,2.2,7.1,2.1,7.4,2c0.3,0,0.6,0.1,0.8,0.3c0.2,0.2,0.4,0.5,0.4,0.8c0,0.3-0.1,0.6-0.3,0.8l-5,6
	l4.8,6c0.1,0.2,0.2,0.4,0.2,0.6c0,0.2,0,0.4-0.1,0.6c-0.1,0.2-0.2,0.4-0.4,0.5C7.7,17.6,7.5,17.7,7.3,17.7z"/>
</svg>
