<svg width="14" height="20" viewBox="0 0 14 20" fill="none" xmlns="http://www.w3.org/2000/svg">
<path d="M11.0321 19.0912H3.63112C3.20286 19.0908 2.77974 18.9957 2.39075 18.8124C2.00177 18.6291 1.65609 18.362 1.37742 18.0293C1.10227 17.7042 0.899126 17.322 0.781932 16.909C0.664738 16.4959 0.636262 16.0619 0.698459 15.6365C1.09719 13.4216 2.25253 11.4239 3.95816 9.99995C2.25157 8.57533 1.09611 6.57604 0.698459 4.35973C0.637268 3.93498 0.666238 3.50172 0.783398 3.08944C0.900558 2.67716 1.10316 2.29554 1.37742 1.97055C1.65609 1.63788 2.00177 1.37076 2.39075 1.18749C2.77974 1.00421 3.20286 0.909106 3.63112 0.908691H11.0321C11.4609 0.909064 11.8845 1.00413 12.2741 1.18739C12.6637 1.37065 13.01 1.63779 13.2894 1.97055C13.564 2.29529 13.7669 2.67689 13.8841 3.08924C14.0012 3.50159 14.03 3.93497 13.9683 4.35973C13.5665 6.57617 12.4088 8.57482 10.7015 9.99995C12.408 11.4268 13.5643 13.4267 13.9648 15.6438C14.026 16.0686 13.997 16.5018 13.8798 16.9141C13.7627 17.3264 13.5601 17.708 13.2858 18.033C13.007 18.3652 12.6612 18.6317 12.2722 18.8144C11.8831 18.9971 11.4601 19.0915 11.0321 19.0912ZM11.0321 2.42511H3.63112C3.41643 2.42504 3.20426 2.47244 3.00915 2.56408C2.81404 2.65572 2.6406 2.78943 2.50071 2.95604C2.36072 3.11381 2.25633 3.30112 2.1949 3.50472C2.13347 3.70831 2.11652 3.92323 2.14524 4.13427C2.44384 6.02889 3.58847 7.81805 5.56846 9.40356C5.64501 9.46524 5.70889 9.54178 5.75642 9.6288C5.80396 9.71582 5.83421 9.81159 5.84544 9.9106C5.85667 10.0096 5.84866 10.1099 5.82187 10.2058C5.79508 10.3016 5.75003 10.3911 5.68932 10.4691C5.65359 10.5147 5.61306 10.5561 5.56846 10.5927C3.58847 12.1819 2.44384 13.971 2.16301 15.8656C2.13429 16.0767 2.15125 16.2916 2.21267 16.4952C2.2741 16.6988 2.3785 16.8861 2.51849 17.0439C2.65837 17.2105 2.83181 17.3442 3.02692 17.4358C3.22203 17.5275 3.4342 17.5749 3.6489 17.5748H11.0321C11.2474 17.5751 11.4601 17.5279 11.6559 17.4362C11.8516 17.3446 12.0256 17.2107 12.1661 17.0439C12.3024 16.8849 12.4033 16.6975 12.4616 16.4947C12.5199 16.2918 12.5343 16.0784 12.5038 15.8693C12.2265 13.9856 11.0819 12.2109 9.09476 10.5927C8.94173 10.4677 8.84344 10.2857 8.82144 10.0866C8.79945 9.88751 8.85556 9.68764 8.97746 9.53084C9.01194 9.48529 9.05129 9.44382 9.09476 9.4072C11.0819 7.79259 12.2265 6.01798 12.5038 4.13427C12.5325 3.92323 12.5155 3.70831 12.4541 3.50472C12.3927 3.30112 12.2883 3.11381 12.1483 2.95604C12.01 2.79128 11.8388 2.65867 11.6463 2.5671C11.4538 2.47553 11.2444 2.42712 11.0321 2.42511ZM10.0581 16.062H4.60512C4.40899 16.0601 4.22147 15.9793 4.08311 15.8371C3.94475 15.6948 3.86666 15.5026 3.86574 15.302C3.8671 15.2046 3.88639 15.1084 3.92261 15.0183C4.502 13.7371 5.38551 12.6245 6.49269 11.7818L6.8766 11.4727C7.00691 11.365 7.16939 11.3062 7.33694 11.3062C7.50449 11.3062 7.66698 11.365 7.79728 11.4727L8.17409 11.7782C9.2798 12.6248 10.1639 13.7379 10.7477 15.0183C10.8204 15.2045 10.8183 15.4126 10.7417 15.5972C10.6651 15.7818 10.5204 15.9279 10.3389 16.0038C10.2498 16.0413 10.1545 16.0611 10.0581 16.062Z" fill="white"/>
</svg>
