<svg width="19" height="19" viewBox="0 0 19 19" fill="none" xmlns="http://www.w3.org/2000/svg">
<path d="M7.91666 1.58301L7.12499 2.37467H3.95832C3.48332 2.37467 3.16666 2.69134 3.16666 3.16634C3.16666 3.64134 3.48332 3.95801 3.95832 3.95801H5.54166H13.4583H15.0417C15.5167 3.95801 15.8333 3.64134 15.8333 3.16634C15.8333 2.69134 15.5167 2.37467 15.0417 2.37467H11.875L11.0833 1.58301H7.91666ZM3.95832 5.54134V15.833C3.95832 16.7038 4.67082 17.4163 5.54166 17.4163H13.4583C14.3292 17.4163 15.0417 16.7038 15.0417 15.833V5.54134H3.95832ZM7.12499 7.12467C7.59999 7.12467 7.91666 7.44134 7.91666 7.91634V15.0413C7.91666 15.5163 7.59999 15.833 7.12499 15.833C6.64999 15.833 6.33332 15.5163 6.33332 15.0413V7.91634C6.33332 7.44134 6.64999 7.12467 7.12499 7.12467ZM11.875 7.12467C12.35 7.12467 12.6667 7.44134 12.6667 7.91634V15.0413C12.6667 15.5163 12.35 15.833 11.875 15.833C11.4 15.833 11.0833 15.5163 11.0833 15.0413V7.91634C11.0833 7.44134 11.4 7.12467 11.875 7.12467Z" fill="#2A393F" fill-opacity="0.5"/>
</svg>
