<svg width="19" height="25" viewBox="0 0 19 25" fill="none" xmlns="http://www.w3.org/2000/svg">
<path d="M14.5799 25H4.16988C3.56749 24.9994 2.97235 24.8687 2.42521 24.6167C1.87807 24.3647 1.39186 23.9974 0.999875 23.54C0.612857 23.0929 0.327127 22.5674 0.162285 21.9995C-0.00255699 21.4316 -0.0426094 20.8348 0.0448751 20.25C0.605718 17.2047 2.23078 14.4578 4.62988 12.5C2.22944 10.5412 0.604192 7.79231 0.0448751 4.745C-0.0411955 4.16098 -0.000447139 3.56527 0.164347 2.99842C0.329142 2.43156 0.614115 1.90685 0.999875 1.46C1.39186 1.0026 1.87807 0.635323 2.42521 0.383327C2.97235 0.131331 3.56749 0.000570409 4.16988 0H14.5799C15.183 0.000511631 15.7789 0.131221 16.3269 0.383196C16.8748 0.635171 17.3619 1.00247 17.7549 1.46C18.1412 1.9065 18.4265 2.43117 18.5914 2.99814C18.7562 3.5651 18.7966 4.16097 18.7099 4.745C18.1446 7.79248 16.5164 10.5405 14.1149 12.5C16.5152 14.4618 18.1416 17.2116 18.7049 20.26C18.7909 20.844 18.7502 21.4397 18.5854 22.0066C18.4206 22.5734 18.1356 23.0982 17.7499 23.545C17.3576 24.0017 16.8713 24.3683 16.3241 24.6194C15.7769 24.8705 15.1819 25.0004 14.5799 25ZM14.5799 2.085H4.16988C3.86789 2.0849 3.56946 2.15008 3.29502 2.27608C3.02059 2.40208 2.77663 2.58592 2.57987 2.815C2.38297 3.03193 2.23612 3.28946 2.14972 3.5694C2.06332 3.84933 2.03948 4.14483 2.07987 4.435C2.49988 7.04 4.10987 9.5 6.89488 11.68C7.00255 11.7648 7.0924 11.87 7.15926 11.9897C7.22612 12.1093 7.26867 12.241 7.28447 12.3772C7.30027 12.5133 7.289 12.6512 7.25131 12.783C7.21363 12.9148 7.15027 13.0378 7.06488 13.145C7.01462 13.2077 6.95761 13.2647 6.89488 13.315C4.10987 15.5 2.49988 17.96 2.10488 20.565C2.06448 20.8552 2.08832 21.1507 2.17472 21.4306C2.26112 21.7105 2.40797 21.9681 2.60488 22.185C2.80163 22.4141 3.04559 22.5979 3.32002 22.7239C3.59446 22.8499 3.89289 22.9151 4.19488 22.915H14.5799C14.8826 22.9155 15.1819 22.8505 15.4572 22.7245C15.7325 22.5985 15.9774 22.4145 16.1749 22.185C16.3667 21.9665 16.5085 21.7088 16.5906 21.4299C16.6726 21.151 16.6928 20.8575 16.6499 20.57C16.2599 17.98 14.6499 15.54 11.8549 13.315C11.6396 13.1431 11.5014 12.8928 11.4704 12.6191C11.4395 12.3454 11.5184 12.0706 11.6899 11.855C11.7384 11.7924 11.7937 11.7354 11.8549 11.685C14.6499 9.465 16.2599 7.025 16.6499 4.435C16.6903 4.14483 16.6664 3.84933 16.58 3.5694C16.4936 3.28946 16.3468 3.03193 16.1499 2.815C15.9553 2.58846 15.7146 2.40612 15.4438 2.28022C15.173 2.15432 14.8785 2.08776 14.5799 2.085ZM13.2099 20.835H5.53988C5.264 20.8324 5.00024 20.7213 4.80562 20.5257C4.61101 20.3302 4.50118 20.0659 4.49988 19.79C4.50179 19.6561 4.52893 19.5238 4.57987 19.4C5.39482 17.6383 6.63755 16.1086 8.19487 14.95L8.73487 14.525C8.91816 14.3768 9.1467 14.296 9.38237 14.296C9.61805 14.296 9.84659 14.3768 10.0299 14.525L10.5599 14.945C12.1151 16.1091 13.3587 17.6394 14.1799 19.4C14.2822 19.656 14.2791 19.9421 14.1714 20.1959C14.0637 20.4497 13.8601 20.6507 13.6049 20.755C13.4795 20.8066 13.3454 20.8337 13.2099 20.835Z" fill="white"/>
</svg>
