<?xml version="1.0" encoding="utf-8"?>
<!-- Generator: Adobe Illustrator 21.0.0, SVG Export Plug-In . SVG Version: 6.00 Build 0)  -->
<svg version="1.1" id="Layer_1" xmlns="http://www.w3.org/2000/svg" xmlns:xlink="http://www.w3.org/1999/xlink" x="0px" y="0px"
	 viewBox="0 0 23 28" style="enable-background:new 0 0 23 28;" xml:space="preserve">
<style type="text/css">
	.st0{fill:#FFFFFF;}
</style>
<path class="st0" d="M21.1,16.7l-1.7-6.2c-0.4-1.6-1.3-3-2.5-4c-1.2-1.1-2.7-1.8-4.3-2V2.9c0-0.3-0.1-0.5-0.3-0.7
	C12,2,11.8,1.9,11.5,1.9c-0.3,0-0.5,0.1-0.7,0.3c-0.2,0.2-0.3,0.4-0.3,0.7v1.6C10,4.5,9.5,4.6,9.1,4.7C7.6,5.1,6.3,5.9,5.3,7
	c-1,1.1-1.8,2.5-2.1,3.9l-1.3,6c-0.1,0.6-0.1,1.2,0,1.8c0.1,0.6,0.3,1.1,0.6,1.6c0.3,0.5,0.7,0.9,1.2,1.3c0.5,0.3,1,0.6,1.6,0.7
	c0.3,0.1,0.6,0.1,1,0.1h1c0.2,1,0.8,1.9,1.6,2.6c0.8,0.7,1.8,1,2.9,1s2-0.4,2.9-1c0.8-0.7,1.4-1.6,1.6-2.6h0.8
	c0.6,0,1.2-0.1,1.7-0.3c0.5-0.2,1-0.6,1.5-1c0.4-0.4,0.8-0.9,1-1.5c0.2-0.5,0.3-1.1,0.3-1.7C21.3,17.5,21.2,17.1,21.1,16.7z
	 M11.6,24.2c-0.6,0-1.1-0.2-1.6-0.5c-0.5-0.3-0.8-0.8-1-1.3h5.1c-0.2,0.5-0.5,1-1,1.3C12.7,24,12.2,24.2,11.6,24.2z M18.9,19.5
	c-0.2,0.3-0.6,0.6-0.9,0.8c-0.4,0.2-0.8,0.3-1.2,0.3H6.2c-0.4,0-0.8-0.1-1.2-0.3c-0.4-0.2-0.7-0.4-0.9-0.7c-0.3-0.3-0.4-0.7-0.5-1.1
	c-0.1-0.4-0.1-0.8,0-1.2l1.3-5.9C5.2,9.9,6,8.6,7.1,7.7c1.1-0.9,2.5-1.5,4-1.5c1.5,0,2.9,0.4,4.1,1.3c1.2,0.9,2,2.1,2.4,3.5l1.7,6.2
	c0.1,0.4,0.1,0.8,0.1,1.2C19.4,18.8,19.2,19.2,18.9,19.5z"/>
</svg>
