<?xml version="1.0" encoding="utf-8"?>
<!-- Generator: Adobe Illustrator 21.0.0, SVG Export Plug-In . SVG Version: 6.00 Build 0)  -->
<svg version="1.1" id="Layer_1" xmlns="http://www.w3.org/2000/svg" xmlns:xlink="http://www.w3.org/1999/xlink" x="0px" y="0px"
	 viewBox="0 0 28 28" style="enable-background:new 0 0 28 28;" xml:space="preserve">
<style type="text/css">
	.st0{fill:#72448F;}
</style>
<path class="st0" d="M27.3,12.2L17.4,1.5c-0.4-0.5-1-0.8-1.6-1.1C15.3,0.1,14.6,0,14,0c-0.6,0-1.3,0.1-1.9,0.4
	C11.5,0.6,11,1,10.6,1.5L0.7,12.2c-0.4,0.4-0.7,1-0.7,1.6v10.6c0,0.9,0.4,1.8,1,2.5c0.7,0.7,1.5,1,2.5,1h4.7v-7c0-1,0.3-2.1,0.8-3
	c0.5-0.9,1.3-1.6,2.2-2.1c0.1,0,0.1-0.1,0.2-0.1c0.2-0.1,0.4-0.2,0.7-0.3c0.2-0.1,0.3-0.1,0.5-0.1c0.2,0,0.4-0.1,0.5-0.1
	c0.1,0,0.2-0.1,0.3-0.1c0.2,0,0.3,0,0.5,0c0,0,0,0,0.1,0h0c0.4,0,0.7,0,1.1,0.1c0,0,0.1,0,0.1,0c0.3,0.1,0.7,0.2,1,0.3
	c0,0,0.1,0,0.1,0.1c0.3,0.1,0.6,0.3,0.9,0.5l0.1,0.1c0.3,0.2,0.5,0.4,0.8,0.6c0,0,0.1,0.1,0.1,0.1c0.2,0.2,0.4,0.5,0.6,0.8l0.1,0.1
	c0.2,0.3,0.3,0.6,0.5,0.9c0,0,0,0.1,0,0.1c0.1,0.3,0.2,0.7,0.3,1c0,0,0,0.1,0,0.1c0.1,0.4,0.1,0.8,0.1,1.1v7h4.7
	c0.9,0,1.8-0.4,2.5-1c0.7-0.7,1-1.5,1-2.5V13.8C28,13.2,27.8,12.7,27.3,12.2z"/>
<path class="st0" d="M14,17.5c-0.9,0-1.8,0.4-2.5,1c-0.7,0.7-1,1.5-1,2.5v7h7v-7c0-0.9-0.4-1.8-1-2.5C15.8,17.9,14.9,17.5,14,17.5z"
	/>
</svg>
