<?xml version="1.0" encoding="utf-8"?>
<!-- Generator: Adobe Illustrator 21.0.0, SVG Export Plug-In . SVG Version: 6.00 Build 0)  -->
<svg version="1.1" id="Layer_1" xmlns="http://www.w3.org/2000/svg" xmlns:xlink="http://www.w3.org/1999/xlink" x="0px" y="0px"
	 viewBox="0 0 85.8 85.8" style="enable-background:new 0 0 85.8 85.8;" xml:space="preserve">
<style type="text/css">
	.st0{fill:#FFFFFF;}
</style>
<path class="st0" d="M33.4,52.4l-2.8,2.8c-0.4,0.4-0.9,0.6-1.4,0.6c-0.5,0-1-0.2-1.4-0.6c-0.5-0.5-0.7-1.3-0.5-2
	c0.3-0.8,0.4-1.7,0.4-2.5c0-1.8-0.6-3.5-1.7-5l9.5-9.5C38.5,41.4,37.8,48,33.4,52.4"/>
<path class="st0" d="M59.8,40.1l-9.5,9.5c-2.9-5.1-2.2-11.8,2.2-16.2l2.8-2.8c0.4-0.4,0.9-0.6,1.4-0.6c0.5,0,1,0.2,1.4,0.6
	c0.5,0.5,0.7,1.3,0.5,2c-0.3,0.8-0.4,1.7-0.4,2.5C58.1,36.9,58.7,38.6,59.8,40.1"/>
<path class="st0" d="M20.2,83.6c0,1.1-0.9,2.2-2.2,2.2l-4.6,0c-3.7,0-7.1-1.5-9.5-3.9l10.5-10.4l5.2-5.2c-2,2-3.1,4.5-3.3,7.1
	c-0.2,3.2,0.8,6.4,3.3,8.8C20,82.6,20.2,83.1,20.2,83.6 M21.4,64.4c-1.8,1.8-4.3,2.9-7,2.9c-2.7,0-5.2-1.1-7-2.9l0,0L0,57l0,15.4
	c0,3.7,1.5,7.1,3.9,9.5l10.5-10.4l5.2-5.2L21.4,64.4L21.4,64.4z M41.5,24.8c2.6-3.1,2.6-7.7,0-10.8c-1.7-2-4-2.9-6.3-2.9
	c-2.1,0-4.3,0.8-5.9,2.4c-1.6,1.6-2.4,3.7-2.4,5.9c0,0.8,0.1,1.7,0.4,2.5c0.2,0.7,0,1.5-0.5,2c-0.4,0.4-0.9,0.6-1.4,0.6
	c-0.5,0-1-0.2-1.4-0.6L4,3.9C1.6,6.3,0.1,9.7,0,13.4L0,43l7.4,7.4l5.9,5.9c-1.4-1.6-2.1-3.6-2.1-5.6c0-1,0.2-1.9,0.5-2.8
	c0.5-1.3,1.3-2.5,2.4-3.5c3.1-2.6,7.7-2.6,10.8,0c0.5,0.4,0.9,0.9,1.3,1.3l9.5-9.5c-0.6-1-1.3-1.9-2.1-2.8l-2.8-2.8
	c-0.8-0.8-0.8-2,0-2.8c0.4-0.4,0.9-0.6,1.4-0.6c0.2,0,0.4,0,0.6,0.1c0.8,0.3,1.7,0.4,2.5,0.4C37.5,27.7,39.8,26.8,41.5,24.8
	 M78.5,35.5l-6-6c1.5,1.6,2.2,3.6,2.2,5.7c0,1-0.2,1.9-0.5,2.8c-0.5,1.3-1.3,2.5-2.4,3.5c-3.1,2.6-7.7,2.6-10.8,0
	c-0.5-0.4-0.9-0.9-1.3-1.3l-9.5,9.5c0.6,1,1.3,1.9,2.1,2.8l2.8,2.8c0.8,0.8,0.8,2,0.1,2.8c-0.4,0.4-0.9,0.6-1.4,0.6
	c-0.2,0-0.4,0-0.6-0.1c-0.8-0.3-1.7-0.4-2.5-0.4c-2.3,0-4.7,1-6.3,2.9c-2.6,3.1-2.6,7.7,0,10.8c1.7,2,4,2.9,6.3,2.9
	c2.1,0,4.3-0.8,5.9-2.4c1.6-1.6,2.4-3.7,2.4-5.9c0-0.8-0.1-1.7-0.4-2.5c-0.2-0.7,0-1.5,0.5-2c0.4-0.4,0.9-0.6,1.4-0.6
	c0.5,0,1,0.2,1.4,0.6l20,20c2.4-2.4,3.9-5.8,3.9-9.5l0-29.6L78.5,35.5z M69.5,12.5c-0.2,2.6-1.3,5.1-3.2,7L81.9,4
	c-2.4-2.4-5.8-3.9-9.5-3.9l-4.6,0c-1.3,0-2.2,1.1-2.2,2.2c0,0.5,0.2,1.1,0.6,1.5C68.7,6.1,69.8,9.4,69.5,12.5 M24,61.9
	c0.7-0.7,0.7-1.8,0.2-2.5c-0.1-0.1-0.1-0.2-0.2-0.2c-0.4-0.4-0.9-0.6-1.4-0.6c-0.2,0-0.4,0-0.6,0.1c-0.8,0.3-1.7,0.4-2.5,0.4
	c-1.8,0-3.5-0.6-5-1.7l-0.1,0l-0.5-0.5c0,0-0.1-0.1-0.1-0.1c-0.1-0.1-0.1-0.1-0.2-0.2c-0.1-0.1-0.1-0.1-0.1-0.2l0,0l-6-6L0,43l0,14
	l7.4,7.4l0,0c1.8,1.8,4.3,2.9,7,2.9c2.7,0,5.2-1.1,7-2.9l0,0L24,61.9L24,61.9 M85.8,13.5c0-3.7-1.5-7.1-3.9-9.5h0L66.3,19.5
	l-0.1,0.1l-1.8,1.8l0,0c1.8-1.8,4.3-2.9,7-2.9c2.7,0,5.2,1.1,7,2.9l0,0l7.4,7.4L85.8,13.5 M78.5,21.4L78.5,21.4
	c-1.8-1.8-4.3-2.9-7-2.9c-2.7,0-5.2,1.1-7,2.9l0,0l-2.5,2.5c-0.7,0.7-0.8,1.8-0.2,2.5c0.1,0.1,0.1,0.2,0.2,0.2
	c0.4,0.4,0.9,0.6,1.4,0.6c0.2,0,0.4,0,0.6-0.1c0.8-0.3,1.7-0.4,2.5-0.4c1.8,0,3.5,0.6,5,1.7l0.1-0.1l0.6,0.6
	c0.1,0.1,0.1,0.1,0.2,0.2c0.1,0.1,0.1,0.1,0.2,0.2l6,6l7.4,7.4l0-14L78.5,21.4z M19.6,3.7C21,2.3,20,0,18.1,0l-4.6,0
	C9.8,0,6.4,1.5,4,3.9l15.6,15.6c-2.2-2.2-3.3-5.1-3.3-7.9C16.3,8.7,17.4,5.9,19.6,3.7 M66.2,66.3c2.2,2.2,3.3,5.1,3.3,7.9
	c0,2.9-1.1,5.8-3.3,7.9c-1.4,1.4-0.4,3.7,1.5,3.7l4.6,0c3.7,0,7.1-1.5,9.5-3.9L66.2,66.3z"/>
</svg>
