<?xml version="1.0" encoding="utf-8"?>
<!-- Generator: Adobe Illustrator 21.0.0, SVG Export Plug-In . SVG Version: 6.00 Build 0)  -->
<svg version="1.1" id="Layer_1" xmlns="http://www.w3.org/2000/svg" xmlns:xlink="http://www.w3.org/1999/xlink" x="0px" y="0px"
	 viewBox="0 0 259.9 63.8" style="enable-background:new 0 0 259.9 63.8;" xml:space="preserve">
<style type="text/css">
	.st0{fill:#1FAD8D;}
	.st1{fill:#503068;}
	.st2{fill:#72428F;}
	.st3{fill:#E2232E;}
	.st4{fill:#F9BF28;}
	.st5{fill:#19886F;}
	.st6{fill:#CB1417;}
	.st7{fill:#F39719;}
</style>
<g>
	<path class="st0" d="M96.6,47.4c-0.6-1-1.4-2.2-2.3-3.4s-1.8-2.4-2.8-3.7c-1-1.2-2.1-2.4-3.2-3.5c-1.1-1.1-2.2-2.1-3.3-3v13.6h-7.2
		v-32h7.2v12c1.9-1.9,3.7-4,5.6-6.1c1.9-2.1,3.7-4.1,5.3-5.9h8.5c-2.2,2.6-4.4,5.1-6.6,7.5c-2.2,2.4-4.5,4.8-7,7.2
		c2.6,2.1,5,4.7,7.4,7.6c2.4,2.9,4.7,6.2,6.9,9.7H96.6z"/>
	<path class="st0" d="M114.9,22.4c2,0,3.7,0.2,5.1,0.7c1.4,0.5,2.4,1.1,3.3,2c0.8,0.9,1.4,1.9,1.7,3.1c0.3,1.2,0.5,2.6,0.5,4.1v14.3
		c-1,0.2-2.4,0.5-4.1,0.8c-1.8,0.3-3.9,0.4-6.4,0.4c-1.6,0-3-0.1-4.3-0.4c-1.3-0.3-2.4-0.7-3.3-1.4c-0.9-0.6-1.6-1.5-2.1-2.5
		s-0.7-2.3-0.7-3.7c0-1.4,0.3-2.6,0.9-3.6c0.6-1,1.3-1.8,2.3-2.4c1-0.6,2-1,3.3-1.3c1.2-0.3,2.5-0.4,3.8-0.4c0.9,0,1.7,0,2.4,0.1
		c0.7,0.1,1.3,0.2,1.7,0.3v-0.6c0-1.2-0.4-2.1-1.1-2.8c-0.7-0.7-1.9-1.1-3.7-1.1c-1.2,0-2.3,0.1-3.5,0.3s-2.1,0.4-3,0.7l-0.9-5.5
		c0.4-0.1,0.9-0.3,1.5-0.4c0.6-0.1,1.3-0.3,2-0.4c0.7-0.1,1.5-0.2,2.2-0.3C113.3,22.5,114.1,22.4,114.9,22.4z M115.4,42.6
		c0.7,0,1.3,0,1.9,0c0.6,0,1.1-0.1,1.5-0.1v-5.2c-0.3-0.1-0.7-0.1-1.2-0.2c-0.6-0.1-1.1-0.1-1.5-0.1c-0.6,0-1.3,0-1.8,0.1
		c-0.6,0.1-1.1,0.2-1.5,0.4c-0.4,0.2-0.8,0.5-1,0.9c-0.2,0.4-0.4,0.8-0.4,1.4c0,1.1,0.4,1.8,1.1,2.2
		C113.2,42.4,114.2,42.6,115.4,42.6z"/>
	<path class="st0" d="M142.7,34.5c0-2.2-0.3-3.8-0.9-4.7c-0.6-0.9-1.5-1.4-2.9-1.4c-0.4,0-0.9,0-1.3,0.1s-0.9,0.1-1.3,0.2v18.7h-6.9
		V23.9c0.6-0.2,1.3-0.3,2.1-0.5s1.6-0.3,2.5-0.5s1.8-0.2,2.7-0.3c0.9-0.1,1.8-0.1,2.7-0.1c1.8,0,3.2,0.2,4.3,0.7
		c1.1,0.4,2,1,2.7,1.6c1-0.7,2.1-1.3,3.4-1.7c1.3-0.4,2.5-0.6,3.5-0.6c1.9,0,3.5,0.3,4.8,0.8c1.2,0.5,2.2,1.3,3,2.3
		c0.7,1,1.2,2.2,1.5,3.5c0.3,1.4,0.4,2.9,0.4,4.5v13.7H156V34.5c0-2.2-0.3-3.8-0.9-4.7c-0.6-0.9-1.5-1.4-2.9-1.4
		c-0.4,0-0.9,0.1-1.5,0.3c-0.7,0.2-1.2,0.4-1.6,0.7c0.2,0.7,0.4,1.5,0.4,2.2c0.1,0.8,0.1,1.6,0.1,2.5v13.3h-6.9V34.5z"/>
	<path class="st0" d="M189.5,35.2c0,1.9-0.2,3.6-0.7,5.1c-0.5,1.5-1.1,2.9-2,4c-0.9,1.1-2,2-3.3,2.6c-1.3,0.6-2.8,0.9-4.6,0.9
		c-1,0-1.8-0.1-2.7-0.3c-0.8-0.2-1.6-0.4-2.4-0.8v9.1h-6.9v-32c0.6-0.2,1.3-0.4,2.1-0.5c0.8-0.2,1.6-0.3,2.5-0.4
		c0.9-0.1,1.8-0.2,2.7-0.3c0.9-0.1,1.8-0.1,2.6-0.1c2,0,3.8,0.3,5.4,0.9c1.6,0.6,2.9,1.4,4,2.5c1.1,1.1,1.9,2.4,2.5,4
		C189.2,31.5,189.5,33.3,189.5,35.2z M182.4,35.4c0-2.1-0.5-3.8-1.4-5.1s-2.4-1.9-4.2-1.9c-0.6,0-1.2,0-1.7,0.1
		c-0.5,0-1,0.1-1.3,0.2v12.4c0.4,0.3,1,0.5,1.7,0.7c0.7,0.2,1.4,0.3,2.1,0.3C180.8,42,182.4,39.8,182.4,35.4z"/>
	<path class="st0" d="M213.2,46.5c-1.2,0.3-2.7,0.7-4.5,0.9s-3.8,0.4-5.8,0.4c-2.1,0-3.8-0.3-5.1-0.8c-1.4-0.6-2.5-1.3-3.3-2.3
		c-0.8-1-1.4-2.2-1.7-3.6c-0.3-1.4-0.5-2.9-0.5-4.6V23.1h6.9v12.7c0,2.2,0.3,3.8,0.9,4.8c0.6,1,1.7,1.5,3.3,1.5c0.5,0,1,0,1.6-0.1
		c0.6,0,1-0.1,1.5-0.2V23.1h6.9V46.5z"/>
	<path class="st0" d="M224.4,42.4c1.3,0,2.2-0.1,2.7-0.4c0.5-0.2,0.8-0.7,0.8-1.4c0-0.6-0.3-1-1-1.5c-0.7-0.4-1.7-0.9-3.1-1.4
		c-1.1-0.4-2.1-0.8-2.9-1.2c-0.9-0.4-1.6-0.9-2.2-1.5c-0.6-0.6-1.1-1.3-1.4-2.1c-0.3-0.8-0.5-1.8-0.5-3c0-2.3,0.8-4.1,2.5-5.4
		c1.7-1.3,4-2,7-2c1.5,0,2.9,0.1,4.2,0.4c1.4,0.3,2.4,0.5,3.2,0.9l-1.2,5.4c-0.8-0.3-1.7-0.5-2.6-0.7c-0.9-0.2-2-0.3-3.2-0.3
		c-2.2,0-3.2,0.6-3.2,1.8c0,0.3,0,0.5,0.1,0.7c0.1,0.2,0.3,0.4,0.6,0.6s0.7,0.4,1.1,0.6s1.1,0.5,1.8,0.8c1.5,0.6,2.8,1.1,3.7,1.7
		c1,0.5,1.8,1.1,2.3,1.8c0.6,0.6,1,1.3,1.2,2.1c0.2,0.8,0.3,1.7,0.3,2.7c0,2.4-0.9,4.2-2.7,5.4c-1.8,1.2-4.3,1.8-7.6,1.8
		c-2.2,0-3.9-0.2-5.4-0.6c-1.4-0.4-2.4-0.7-3-0.9l1.2-5.6c1.2,0.5,2.4,0.8,3.6,1.1C222,42.3,223.2,42.4,224.4,42.4z"/>
	<path class="st0" d="M246.3,22.4c2,0,3.7,0.2,5.1,0.7c1.4,0.5,2.4,1.1,3.3,2c0.8,0.9,1.4,1.9,1.7,3.1c0.3,1.2,0.5,2.6,0.5,4.1v14.3
		c-1,0.2-2.4,0.5-4.1,0.8c-1.8,0.3-3.9,0.4-6.4,0.4c-1.6,0-3-0.1-4.3-0.4c-1.3-0.3-2.4-0.7-3.3-1.4c-0.9-0.6-1.6-1.5-2.1-2.5
		s-0.7-2.3-0.7-3.7c0-1.4,0.3-2.6,0.9-3.6c0.6-1,1.3-1.8,2.3-2.4c1-0.6,2-1,3.3-1.3c1.2-0.3,2.5-0.4,3.8-0.4c0.9,0,1.7,0,2.4,0.1
		c0.7,0.1,1.3,0.2,1.7,0.3v-0.6c0-1.2-0.4-2.1-1.1-2.8c-0.7-0.7-1.9-1.1-3.7-1.1c-1.2,0-2.3,0.1-3.5,0.3s-2.1,0.4-3,0.7l-0.9-5.5
		c0.4-0.1,0.9-0.3,1.5-0.4c0.6-0.1,1.3-0.3,2-0.4c0.7-0.1,1.5-0.2,2.2-0.3C244.7,22.5,245.5,22.4,246.3,22.4z M246.9,42.6
		c0.7,0,1.3,0,1.9,0c0.6,0,1.1-0.1,1.5-0.1v-5.2c-0.3-0.1-0.7-0.1-1.2-0.2c-0.6-0.1-1.1-0.1-1.5-0.1c-0.6,0-1.3,0-1.8,0.1
		c-0.6,0.1-1.1,0.2-1.5,0.4c-0.4,0.2-0.8,0.5-1,0.9c-0.2,0.4-0.4,0.8-0.4,1.4c0,1.1,0.4,1.8,1.1,2.2
		C244.6,42.4,245.6,42.6,246.9,42.6z"/>
</g>
<g>
	<path class="st1" d="M15,62.2c0,0.8-0.6,1.6-1.6,1.6H10c-2.8,0-5.2-1.1-7.1-2.9l7.8-7.8l3.8-3.8c-1.5,1.5-2.3,3.4-2.4,5.3
		c-0.2,2.3,0.6,4.8,2.4,6.5C14.9,61.4,15,61.8,15,62.2"/>
	<path class="st2" d="M15.9,47.9l-1.4,1.4l-3.8,3.8l-7.8,7.8C1.1,59.1,0,56.6,0,53.8V42.4l5.5,5.5l0,0c1.3,1.3,3.2,2.2,5.2,2.2
		C12.7,50.1,14.6,49.2,15.9,47.9L15.9,47.9z"/>
	<path class="st3" d="M30.8,18.4c-1.2,1.5-3,2.2-4.7,2.2c-0.6,0-1.3-0.1-1.9-0.3c-0.1,0-0.3-0.1-0.4-0.1c-0.4,0-0.8,0.1-1,0.4
		c-0.6,0.6-0.6,1.5,0,2.1l2.1,2.1c0.6,0.6,1.2,1.3,1.6,2.1L19.4,34c-0.3-0.4-0.6-0.7-0.9-1c-2.3-2-5.7-2-8,0
		c-0.9,0.7-1.5,1.6-1.8,2.6c-0.2,0.7-0.4,1.4-0.4,2.1c0,1.5,0.5,3,1.6,4.1l-4.4-4.4L0,32V10c0-2.8,1.1-5.2,2.9-7l14.9,14.9
		c0.3,0.3,0.7,0.4,1,0.4c0.4,0,0.7-0.1,1-0.4c0.4-0.4,0.5-0.9,0.4-1.5c-0.2-0.6-0.3-1.2-0.3-1.9c0-1.6,0.6-3.2,1.8-4.4
		c1.2-1.2,2.8-1.8,4.4-1.8c1.7,0,3.5,0.7,4.7,2.2C32.8,12.8,32.8,16.1,30.8,18.4"/>
	<path class="st4" d="M63.8,31.8v22c0,2.8-1.1,5.2-2.9,7.1L46,46c-0.3-0.3-0.7-0.4-1-0.4c-0.4,0-0.7,0.1-1,0.4
		c-0.4,0.4-0.5,0.9-0.4,1.5c0.2,0.6,0.3,1.2,0.3,1.9c0,1.6-0.6,3.2-1.8,4.4c-1.2,1.2-2.8,1.8-4.4,1.8c-1.7,0-3.5-0.7-4.7-2.2
		c-2-2.3-2-5.7,0-8c1.2-1.5,3-2.2,4.7-2.2c0.6,0,1.3,0.1,1.9,0.3c0.1,0,0.3,0.1,0.4,0.1c0.4,0,0.8-0.2,1.1-0.5
		c0.5-0.6,0.5-1.5-0.1-2L39,39c-0.6-0.6-1.2-1.3-1.6-2.1l7.1-7.1c0.3,0.4,0.6,0.7,0.9,1c2.3,2,5.7,2,8,0c0.9-0.7,1.5-1.6,1.8-2.6
		c0.2-0.7,0.4-1.4,0.4-2.1c0-1.5-0.6-3-1.7-4.2l4.5,4.5L63.8,31.8z"/>
	<path class="st5" d="M51.7,9.3c0.2-2.3-0.6-4.7-2.4-6.5c-0.3-0.3-0.5-0.7-0.5-1.1c0-0.8,0.6-1.6,1.6-1.6h3.4c2.8,0,5.2,1.1,7.1,2.9
		L49.3,14.5C50.8,13,51.5,11.2,51.7,9.3"/>
	<path class="st6" d="M24.9,39l-2.1,2.1c-0.3,0.3-0.7,0.4-1,0.4c-0.4,0-0.7-0.1-1-0.4c-0.4-0.4-0.5-1-0.4-1.5
		c0.2-0.6,0.3-1.2,0.3-1.9c0-1.3-0.4-2.6-1.2-3.7l7.1-7.1C28.6,30.7,28.1,35.7,24.9,39"/>
	<path class="st1" d="M17.8,46L17.8,46l-1.9,1.9l0,0c-1.3,1.3-3.2,2.2-5.2,2.2c-2,0-3.9-0.8-5.2-2.2l0,0L0,42.4V32l5.5,5.5L10,42
		l0,0c0,0,0.1,0.1,0.1,0.1c0,0,0.1,0.1,0.1,0.1c0,0,0.1,0.1,0.1,0.1l0.4,0.4l0,0c1.1,0.8,2.4,1.2,3.7,1.2c0.6,0,1.3-0.1,1.9-0.3
		c0.1,0,0.3-0.1,0.4-0.1c0.4,0,0.8,0.1,1,0.4c0.1,0.1,0.1,0.1,0.1,0.2C18.3,44.7,18.3,45.5,17.8,46"/>
	<path class="st7" d="M44.4,29.8l-7.1,7.1c-2.2-3.8-1.7-8.8,1.6-12l2.1-2.1c0.3-0.3,0.7-0.4,1-0.4c0.4,0,0.7,0.1,1,0.4
		c0.4,0.4,0.5,0.9,0.4,1.5c-0.2,0.6-0.3,1.2-0.3,1.9C43.2,27.4,43.6,28.7,44.4,29.8"/>
	<path class="st0" d="M63.8,10v11.4l-5.5-5.5l0,0c-1.3-1.3-3.2-2.2-5.2-2.2c-2,0-3.9,0.8-5.2,2.2l0,0l1.4-1.4l0-0.1L60.9,2.9h0
		C62.7,4.7,63.8,7.2,63.8,10"/>
	<path class="st5" d="M63.8,21.4v10.4l-5.5-5.5l-4.5-4.5c0-0.1-0.1-0.1-0.1-0.2c0-0.1-0.1-0.1-0.2-0.1l-0.5-0.5l0,0
		c-1.1-0.8-2.4-1.2-3.7-1.2c-0.6,0-1.3,0.1-1.9,0.3c-0.1,0-0.3,0.1-0.4,0.1c-0.4,0-0.8-0.2-1-0.4c-0.1-0.1-0.1-0.1-0.1-0.2
		c-0.4-0.6-0.4-1.4,0.1-1.9l1.9-1.9l0,0c1.3-1.3,3.2-2.2,5.2-2.2c2,0,3.9,0.8,5.2,2.2l0,0L63.8,21.4z"/>
	<path class="st6" d="M14.5,2.7c-1.6,1.6-2.4,3.8-2.4,5.9c0,2.1,0.8,4.3,2.4,5.9L2.9,2.9C4.7,1.1,7.2,0,10,0h3.4
		C14.8,0,15.6,1.7,14.5,2.7"/>
	<path class="st7" d="M60.9,60.9c-1.8,1.8-4.3,2.9-7.1,2.9h-3.4c-1.4,0-2.1-1.7-1.1-2.7c1.6-1.6,2.4-3.8,2.4-5.9
		c0-2.1-0.8-4.3-2.4-5.9L60.9,60.9z"/>
</g>
</svg>
