<svg width="30" height="30" viewBox="0 0 30 30" fill="none" xmlns="http://www.w3.org/2000/svg">
<path d="M25.9577 0H4.04311C1.81051 0 0.000549316 1.80989 0.000549316 4.04256V25.9573C0.000549316 28.19 1.81044 29.9999 4.04311 29.9999H14.8513L14.8697 19.2795H12.0846C11.7226 19.2795 11.4288 18.9869 11.4275 18.6249L11.4141 15.1693C11.4127 14.8054 11.7074 14.5096 12.0713 14.5096H14.8514V11.1706C14.8514 7.29576 17.2179 5.18587 20.6745 5.18587H23.511C23.8739 5.18587 24.1681 5.48008 24.1681 5.84305V8.75684C24.1681 9.11967 23.8741 9.4138 23.5113 9.41402L21.7706 9.41483C19.8908 9.41483 19.5268 10.3081 19.5268 11.619V14.5097H23.6574C24.051 14.5097 24.3564 14.8534 24.31 15.2442L23.9004 18.6998C23.8612 19.0305 23.5808 19.2797 23.2479 19.2797H19.5452L19.5268 30H25.9578C28.1904 30 30.0003 28.1901 30.0003 25.9575V4.04256C30.0003 1.80989 28.1904 0 25.9577 0Z" fill="#475993"/>
</svg>
