<?xml version="1.0" encoding="utf-8"?>
<!-- Generator: Adobe Illustrator 21.0.0, SVG Export Plug-In . SVG Version: 6.00 Build 0)  -->
<svg version="1.1" id="Layer_1" xmlns="http://www.w3.org/2000/svg" xmlns:xlink="http://www.w3.org/1999/xlink" x="0px" y="0px"
	 viewBox="0 0 293 210.8" style="enable-background:new 0 0 293 210.8;" xml:space="preserve">
<style type="text/css">
	.st0{fill:#20AE8E;}
	.st1{fill:#FAC028;}
	.st2{fill:#FFFFFF;}
	.st3{fill:#F38F2F;}
	.st4{fill:#E63954;}
</style>
<path class="st0" d="M31.8,18.9c1-0.1,1.9,0.7,1.9,1.7l0.3,4.6c0.1,0.7,0.7,1.3,1.4,1.3c0.7-0.1,1.3-0.7,1.3-1.4l-0.3-4.6
	c-0.1-1,0.7-1.9,1.7-1.9l4.6-0.3c0.7-0.1,1.3-0.7,1.3-1.4c-0.1-0.7-0.7-1.3-1.4-1.3L38,15.9c-1,0.1-1.9-0.7-1.9-1.7l-0.3-4.6
	c-0.1-0.7-0.7-1.3-1.4-1.3c-0.9,0-1.5,0.7-1.4,1.4l0.3,4.6c0.1,1-0.7,1.9-1.7,1.9L27,16.5c-0.7,0.1-1.3,0.7-1.3,1.4
	c0.1,0.7,0.7,1.3,1.4,1.3L31.8,18.9z"/>
<path class="st1" d="M191.9,78.8c1.5-0.1,2.8,1,2.9,2.5l0.3,4.4c0.1,0.7,0.7,1.3,1.4,1.3c0.7-0.1,1.3-0.7,1.3-1.4l-0.3-4.4
	c-0.1-1.5,1-2.8,2.5-2.9l4.4-0.3c0.7-0.1,1.3-0.7,1.3-1.4c-0.1-0.7-0.7-1.3-1.4-1.3l-4.4,0.3c-1.5,0.1-2.8-1-2.9-2.5l-0.3-4.4
	c-0.1-0.7-0.7-1.3-1.4-1.3c-0.7,0.1-1.3,0.7-1.3,1.4l0.3,4.4c0.1,1.5-1,2.8-2.5,2.9l-4.4,0.3c-0.7,0.1-1.3,0.7-1.3,1.4
	c0.1,0.7,0.7,1.3,1.4,1.3L191.9,78.8z"/>
<path class="st2" d="M267.1,110.8c-0.5,0.1-0.9,0.3-1.2,0.7c-0.3,0.4-0.4,0.8-0.3,1.3s0.3,0.9,0.7,1.2c0.4,0.3,0.8,0.4,1.3,0.3
	c0.1,0,0.2,0,0.3-0.1c0.1,0,0.2,0,0.2,0c0.1,0,0.2,0,0.2,0.1c0.1,0.1,0.2,0.2,0.2,0.3c0,0.1,0,0.3-0.1,0.4l-0.9,1.2
	c-0.3,0.4-0.7,0.6-1.2,0.7s-0.9-0.1-1.3-0.4l-4.5-3.5c-0.4-0.3-0.6-0.7-0.7-1.2s0.1-0.9,0.4-1.3l3.5-4.5c0.3-0.4,0.7-0.6,1.2-0.7
	s0.9,0.1,1.3,0.4l1.2,0.9c0.1,0.1,0.2,0.1,0.4,0.1c0.1,0,0.3-0.1,0.3-0.2s0.1-0.1,0.1-0.2s0-0.2,0-0.2c-0.1-0.3-0.1-0.7,0-1
	s0.3-0.6,0.6-0.8c0.3-0.2,0.6-0.3,1-0.3s0.7,0.1,1,0.3c0.3,0.2,0.5,0.5,0.7,0.8c0.1,0.3,0.2,0.7,0.1,1s-0.3,0.7-0.5,0.9
	c-0.3,0.2-0.6,0.4-0.9,0.4c-0.1,0-0.1,0-0.2,0s-0.1,0-0.2,0.1c-0.1,0-0.1,0.1-0.2,0.1l-0.1,0.1c-0.1,0.1-0.1,0.2-0.1,0.4
	c0,0.1,0.1,0.3,0.2,0.3l2.6,1.9l-1.9,2.6c-0.1,0.1-0.2,0.2-0.3,0.2c-0.1,0-0.3,0-0.4-0.1l-0.1-0.1c-0.1,0-0.1-0.1-0.1-0.2
	s-0.1-0.1-0.1-0.2s0-0.1,0-0.2c0-0.2-0.1-0.4-0.2-0.6s-0.3-0.4-0.4-0.5c-0.2-0.1-0.4-0.2-0.6-0.3
	C267.6,110.8,267.3,110.7,267.1,110.8z"/>
<path class="st3" d="M278.6,14.3c-0.5,0.1-0.9,0.3-1.2,0.7c-0.3,0.4-0.4,0.8-0.3,1.3c0.1,0.5,0.3,0.9,0.7,1.2
	c0.4,0.3,0.8,0.4,1.3,0.3c0.1,0,0.2,0,0.3-0.1c0.1,0,0.2,0,0.2,0c0.1,0,0.2,0,0.2,0.1c0.1,0.1,0.2,0.2,0.2,0.3c0,0.1,0,0.3-0.1,0.4
	l-0.9,1.2c-0.3,0.4-0.7,0.6-1.2,0.7s-0.9-0.1-1.3-0.4l-4.5-3.5c-0.4-0.3-0.6-0.7-0.7-1.2s0.1-0.9,0.3-1.3l3.5-4.5
	c0.3-0.4,0.7-0.6,1.2-0.7c0.5-0.1,0.9,0.1,1.3,0.4l1.2,0.9c0.1,0.1,0.2,0.1,0.4,0.1c0.1,0,0.3-0.1,0.3-0.2c0-0.1,0.1-0.1,0.1-0.2
	c0-0.1,0-0.2,0-0.2c-0.1-0.3-0.1-0.7,0-1s0.3-0.6,0.6-0.8c0.3-0.2,0.6-0.3,1-0.3s0.7,0.1,1,0.3c0.3,0.2,0.5,0.5,0.7,0.8
	c0.1,0.3,0.2,0.7,0.1,1s-0.3,0.7-0.5,0.9c-0.3,0.2-0.6,0.4-0.9,0.4c-0.1,0-0.1,0-0.2,0s-0.1,0-0.2,0.1c-0.1,0-0.1,0.1-0.2,0.1
	l-0.1,0.1c-0.1,0.1-0.1,0.2-0.1,0.4c0,0.1,0.1,0.3,0.2,0.3l2.6,1.9l-1.9,2.6c-0.1,0.1-0.2,0.2-0.3,0.2c-0.1,0-0.3,0-0.4-0.1
	l-0.1-0.1c-0.1,0-0.1-0.1-0.1-0.2s-0.1-0.1-0.1-0.2c0-0.1,0-0.1,0-0.2c0-0.2-0.1-0.4-0.2-0.6c-0.1-0.2-0.3-0.4-0.4-0.5
	c-0.2-0.1-0.4-0.2-0.6-0.3C279,14.3,278.8,14.3,278.6,14.3z"/>
<path class="st1" d="M168.6,148.8c0,0.7,0.3,1.4,0.8,1.8c0.5,0.5,1.2,0.7,1.9,0.7s1.4-0.3,1.8-0.8c0.5-0.5,0.7-1.2,0.7-1.9
	c0-0.1,0-0.3,0-0.4c0-0.1,0-0.2,0-0.4c0-0.1,0.1-0.2,0.2-0.3c0.1-0.1,0.3-0.2,0.5-0.2s0.4,0.1,0.5,0.2l1.7,1.6
	c0.5,0.5,0.8,1.2,0.8,1.9s-0.3,1.4-0.8,1.9l-6,6.2c-0.5,0.5-1.2,0.8-1.9,0.8s-1.4-0.3-1.9-0.8l-6.2-6c-0.5-0.5-0.8-1.2-0.8-1.9
	s0.3-1.4,0.8-1.9l1.6-1.7c0.1-0.1,0.2-0.3,0.2-0.5s-0.1-0.4-0.2-0.5c-0.1-0.1-0.2-0.1-0.3-0.2c-0.1,0-0.2,0-0.4,0
	c-0.5,0.1-1.1,0-1.6-0.2s-0.9-0.6-1.2-1.1s-0.4-1-0.3-1.5c0-0.5,0.3-1,0.6-1.5c0.3-0.4,0.8-0.7,1.3-0.9c0.5-0.1,1.1-0.1,1.6,0.1
	c0.5,0.2,0.9,0.5,1.3,0.9c0.3,0.4,0.5,1,0.5,1.5c0,0.1,0,0.2,0,0.2c0,0.1,0,0.2,0,0.3s0.1,0.2,0.2,0.3l0.1,0.1
	c0.1,0.1,0.3,0.2,0.5,0.2s0.4-0.1,0.5-0.2l3.4-3.5l3.5,3.4c0.1,0.1,0.2,0.3,0.2,0.5s-0.1,0.4-0.2,0.5l-0.1,0.1
	c-0.1,0.1-0.2,0.1-0.3,0.2c-0.1,0-0.2,0.1-0.3,0c-0.1,0-0.2,0-0.2,0c-0.3,0-0.7,0.1-1,0.2s-0.6,0.3-0.8,0.6
	c-0.2,0.2-0.4,0.5-0.6,0.9C168.6,148.1,168.6,148.5,168.6,148.8z"/>
<path class="st2" d="M15.6,137.8c0.5-0.1,1,0.2,1.1,0.7l0.3,1.4c0.1,0.5,0.6,0.8,1.1,0.7s0.8-0.6,0.7-1.1l-0.3-1.4
	c-0.1-0.5,0.2-1,0.7-1.1l1.4-0.3c0.5-0.1,0.8-0.6,0.7-1.1s-0.6-0.8-1.1-0.7l-1.4,0.3c-0.5,0.1-1-0.2-1.1-0.7l-0.3-1.4
	c-0.1-0.5-0.6-0.8-1.1-0.7s-0.8,0.6-0.7,1.1l0.3,1.4c0.1,0.5-0.2,1-0.7,1.1l-1.4,0.3c-0.5,0.1-0.8,0.6-0.7,1.1s0.6,0.8,1.1,0.7
	L15.6,137.8z"/>
<path class="st4" d="M117.7,101.8c-0.5,0.1-0.9,0.3-1.2,0.7c-0.3,0.4-0.4,0.8-0.3,1.3s0.3,0.9,0.7,1.2c0.4,0.3,0.8,0.4,1.3,0.3
	c0.1,0,0.2,0,0.3-0.1c0.1,0,0.2,0,0.2,0c0.1,0,0.2,0,0.2,0.1c0.1,0.1,0.2,0.2,0.2,0.3c0,0.1,0,0.3-0.1,0.4l-0.9,1.2
	c-0.3,0.4-0.7,0.6-1.2,0.7s-0.9-0.1-1.3-0.3L111,104c-0.4-0.3-0.6-0.7-0.7-1.2s0.1-0.9,0.3-1.3l3.5-4.5c0.3-0.4,0.7-0.6,1.2-0.7
	s0.9,0.1,1.3,0.4l1.2,0.9c0.1,0.1,0.2,0.1,0.4,0.1c0.1,0,0.3-0.1,0.3-0.2s0.1-0.1,0.1-0.2s0-0.2,0-0.2c-0.1-0.3-0.1-0.7,0-1
	s0.3-0.6,0.6-0.8c0.3-0.2,0.6-0.3,1-0.3s0.7,0.1,1,0.3c0.3,0.2,0.5,0.5,0.7,0.8c0.1,0.3,0.2,0.7,0.1,1s-0.3,0.7-0.5,0.9
	c-0.3,0.2-0.6,0.4-0.9,0.4c-0.1,0-0.1,0-0.2,0s-0.1,0-0.2,0.1c-0.1,0-0.1,0.1-0.2,0.1l-0.1,0.1c-0.1,0.1-0.1,0.2-0.1,0.4
	c0,0.1,0.1,0.3,0.2,0.3l2.6,1.9l-1.9,2.6c-0.1,0.1-0.2,0.2-0.3,0.2c-0.1,0-0.3,0-0.4-0.1l-0.1-0.1c-0.1,0-0.1-0.1-0.1-0.2
	s-0.1-0.1-0.1-0.2s0-0.1,0-0.2c0-0.2-0.1-0.4-0.2-0.6s-0.3-0.4-0.4-0.5c-0.2-0.1-0.4-0.2-0.6-0.3
	C118.1,101.8,117.8,101.6,117.7,101.8z"/>
<path class="st2" d="M11.5,77.4c0.5-0.1,1,0.2,1.1,0.7l0.3,1.4c0.1,0.5,0.6,0.8,1.1,0.7c0.5-0.1,0.8-0.6,0.7-1.1l-0.3-1.4
	c-0.1-0.5,0.2-1,0.7-1.1l1.4-0.3c0.5-0.1,0.8-0.6,0.7-1.1c-0.1-0.5-0.6-0.8-1.1-0.7l-1.4,0.3c-0.5,0.1-1-0.2-1.1-0.7l-0.3-1.4
	c-0.1-0.5-0.6-0.8-1.1-0.7c-0.5,0.1-0.8,0.6-0.7,1.1l0.3,1.4c0.1,0.5-0.2,1-0.7,1.1l-1.4,0.3C9.2,76.1,8.9,76.5,9,77
	s0.6,0.8,1.1,0.7L11.5,77.4z"/>
<path class="st1" d="M11.5,186.5c0.5-0.1,1,0.2,1.1,0.7l0.3,1.4c0.1,0.5,0.6,0.8,1.1,0.7s0.8-0.6,0.7-1.1l-0.3-1.4
	c-0.1-0.5,0.2-1,0.7-1.1l1.4-0.3c0.5-0.1,0.8-0.6,0.7-1.1c-0.1-0.5-0.6-0.8-1.1-0.7l-1.4,0.3c-0.5,0.1-1-0.2-1.1-0.7l-0.3-1.4
	c-0.1-0.5-0.6-0.8-1.1-0.7s-0.8,0.6-0.7,1.1l0.3,1.4c0.1,0.5-0.2,1-0.7,1.1L9.7,185c-0.5,0.1-0.8,0.6-0.7,1.1s0.6,0.8,1.1,0.7
	L11.5,186.5z"/>
</svg>
