<?xml version="1.0" encoding="utf-8"?>
<!-- Generator: Adobe Illustrator 21.0.0, SVG Export Plug-In . SVG Version: 6.00 Build 0)  -->
<svg version="1.1" id="Layer_1" xmlns="http://www.w3.org/2000/svg" xmlns:xlink="http://www.w3.org/1999/xlink" x="0px" y="0px"
	 viewBox="0 0 941.7 695.2" style="enable-background:new 0 0 941.7 695.2;" xml:space="preserve">
<style type="text/css">
	.st0{fill:url(#SVGID_1_);}
	.st1{fill:none;stroke:#684430;stroke-width:2;stroke-linecap:round;stroke-miterlimit:10;}
	.st2{fill:#2A393E;}
	.st3{fill:url(#SVGID_2_);}
	.st4{fill:none;stroke:#DB8B17;stroke-width:2;stroke-linecap:round;stroke-linejoin:round;}
	.st5{clip-path:url(#SVGID_4_);}
	.st6{fill:url(#SVGID_5_);}
	.st7{fill:#2A393F;}
	.st8{clip-path:url(#SVGID_7_);}
	.st9{fill:#0C232B;}
	.st10{clip-path:url(#SVGID_9_);}
	.st11{fill:url(#SVGID_10_);}
	.st12{fill:#F8CBC6;}
	.st13{fill:#F4ADAB;}
	.st14{fill:none;stroke:#F4ADAC;stroke-width:3.31;stroke-linecap:round;stroke-miterlimit:10;}
	.st15{fill:none;stroke:#BA2635;stroke-width:3;stroke-linecap:round;stroke-miterlimit:10;}
	.st16{clip-path:url(#SVGID_12_);}
	.st17{fill:url(#SVGID_13_);}
	.st18{fill:#EB6667;}
	.st19{fill:#2C1C11;}
	.st20{fill:none;stroke:#2C1C11;stroke-width:9.99;stroke-linecap:round;stroke-miterlimit:10;}
	.st21{fill:none;stroke:#2B1B12;stroke-width:3;stroke-linecap:round;stroke-miterlimit:10;}
	.st22{fill:none;stroke:#2B1B12;stroke-width:2.27;stroke-linecap:round;stroke-miterlimit:10;}
	.st23{fill:#FFFFFF;}
	.st24{fill:#2B1B12;}
	.st25{fill:none;stroke:#F4ADAC;stroke-width:1.9;stroke-linecap:round;stroke-miterlimit:10;}
	.st26{fill:none;stroke:#F4ADAC;stroke-width:2;stroke-linecap:round;stroke-miterlimit:10;}
	.st27{clip-path:url(#SVGID_15_);}
	.st28{fill:url(#SVGID_16_);stroke:url(#SVGID_17_);stroke-miterlimit:10;}
	.st29{fill:none;stroke:#FFFFFF;stroke-width:8;stroke-linecap:round;stroke-miterlimit:10;}
	.st30{fill:none;stroke:#684430;stroke-width:6.3;stroke-linecap:round;stroke-miterlimit:10;}
	.st31{fill:none;stroke:#684430;stroke-width:6;stroke-linecap:round;stroke-miterlimit:10;}
	.st32{fill:none;stroke:#F4ADAB;stroke-width:1.84;stroke-linecap:round;stroke-linejoin:round;}
	.st33{fill:#2B1B11;}
	.st34{fill:none;}
	.st35{clip-path:url(#SVGID_19_);}
	.st36{fill:none;stroke:#F4ADAB;stroke-width:2;stroke-linecap:round;stroke-linejoin:round;}
	.st37{fill:url(#SVGID_20_);}
	.st38{fill:url(#SVGID_21_);}
	.st39{fill:none;stroke:#1C282B;stroke-width:2;stroke-linecap:round;stroke-linejoin:round;}
	.st40{fill:none;stroke:#1C282B;stroke-width:2.03;stroke-linecap:round;stroke-linejoin:round;}
	.st41{fill:none;stroke:#C6C6C6;stroke-width:2;stroke-linecap:round;stroke-miterlimit:10;}
</style>
<title>Character Illustration 1</title>
<linearGradient id="SVGID_1_" gradientUnits="userSpaceOnUse" x1="711.7111" y1="40.4875" x2="817.7025" y2="40.4875" gradientTransform="matrix(1 0 0 -1 0 307.6)">
	<stop  offset="0" style="stop-color:#684430"/>
	<stop  offset="1" style="stop-color:#2C1C12"/>
</linearGradient>
<path class="st0" d="M718.9,162.1c-5.3,29.4-11.4,61.2-3.2,90.5c3.8,13.7,8.2,24,9.8,36.5c1.9,15-2.3,30.1-3.3,45.2
	s2.4,32.2,14.9,40.7c29.6-14.7,56.4-32.5,80.6-54.9c-21.5-37.2-30.4-83.1-62.4-112c-7.7-7-17.8-31.6-18.8-41.9
	C735.4,155.7,724.9,159.3,718.9,162.1z"/>
<path class="st1" d="M754.4,299.7c4.5,4.5,6.8,10.8,6.3,17.1c-0.5,6.2-3.5,11.8-5.6,17.7s-3.1,12.7,0.2,17.9"/>
<path class="st1" d="M750.6,316.3c1.1,5.1-1.6,10-3.8,14.8s-3.7,10.6-0.6,14.8"/>
<path class="st2" d="M710.8,637.7c-3.3,5.7-4.5,12.3-3.3,18.8c0.6,3.3,1.8,6.5,2.2,9.9c0.9,9.4-5.3,18.5-2.6,27.6
	c70.2-0.2,140.5,0.2,210.6,0c0.5-1.5,1-3.1,1.3-4.7c0.6-2.8,0.8-5.6,0.6-8.5c-0.3-3.1-0.7-6.2-1.3-9.2c-1.3-7.1-3-12.7-2.7-17.3
	c0.3-5.5-1-13.4-8.7-23.8c-38.7,4.8-62.5-3.5-84.2-3.2c-22,0.3-50.2,5.5-90.2,6.4C725.1,633.9,717.8,635.3,710.8,637.7z"/>
<linearGradient id="SVGID_2_" gradientUnits="userSpaceOnUse" x1="814.4318" y1="-15.75" x2="814.4318" y2="-342.2416" gradientTransform="matrix(1 0 0 -1.05 -1.95 307.83)">
	<stop  offset="0" style="stop-color:#F9BF28"/>
	<stop  offset="0.21" style="stop-color:#F8BA29"/>
	<stop  offset="0.45" style="stop-color:#F6AD2B"/>
	<stop  offset="0.7" style="stop-color:#F3972E"/>
	<stop  offset="0.96" style="stop-color:#EE7832"/>
	<stop  offset="1" style="stop-color:#ED7233"/>
</linearGradient>
<path class="st3" d="M915.4,650.2c10.6-13.8,6.7-31.5-2-64.4c-9.3-35-1.2-88.7,10.4-133.5c11.7-45.1,20.7-51.7,14.8-69.6
	c-7-21.4-38.6-41.3-58.3-50.6c-11.5-5.5-24.6-5.6-37.2-5.6c-46.6-0.1-96.9,1.2-135.1,27.5c-6.8,4.7-11.9,11.4-14.7,19.2
	c-14.3,38.8-10.8,88.5,5.6,125.5c5.6,12.7,15,23.5,19.5,36.7c9.8,29-6.3,60.9-10.9,91.2c-3.4,21.8-0.1,24.5,20,31.4
	c25.2,8.6,66.6,11.4,78.4,11.4c30.9,0.1,51-1.9,65.3-4.1C907.2,659.7,913.2,653.1,915.4,650.2z"/>
<path class="st4" d="M721.9,541.3c1.9,9.3,7.9,17,13.2,24.9s10.2,16.7,9.5,26.1"/>
<path class="st4" d="M724.1,566.5c2.6,6.6,3.6,13.7,2.7,20.8"/>
<g>
	<defs>
		<path id="SVGID_3_" d="M87,308.9c-3.8,1.9-13,6.9-23.6,18.1c-4.3,4.5-26.9,28.9-33.8,71.9c-4.7,29.6,2.3,35.6-3.6,68
			c-3.5,19.2-10,31.7-12.3,38.2c-22.1,60-13,125.4-3.8,188.1l207.1,0.8h228.7c12.2-27.9,8.1-59.4,0.8-88.7
			c-7.3-29.6-17.7-59.1-17.1-89.4c0.4-18,4.6-35.7,6.6-53.5c3.9-34.2,0.4-77.1-17.1-107.7s-49.8-48.2-87-55.4
			c-28-5.4-57.7-2.6-87.2,0.3c-38.4,3.7-76.5,7.4-110-7.1h-0.6C125.5,292.3,104.3,300.1,87,308.9"/>
	</defs>
	<clipPath id="SVGID_4_">
		<use xlink:href="#SVGID_3_"  style="overflow:visible;"/>
	</clipPath>
	<g class="st5">
		
			<linearGradient id="SVGID_5_" gradientUnits="userSpaceOnUse" x1="-1246.0675" y1="-389.1563" x2="-1245.0675" y2="-389.1563" gradientTransform="matrix(0 400.39 -400.39 0 -155589.5313 499202.7813)">
			<stop  offset="0" style="stop-color:#E84E7D"/>
			<stop  offset="0.66" style="stop-color:#E1242E"/>
			<stop  offset="1" style="stop-color:#E1242E"/>
		</linearGradient>
		<rect x="-8.4" y="292.3" class="st6" width="466.3" height="401.6"/>
	</g>
</g>
<path class="st7" d="M287.6,694.3h-101c5.9-35.2,8-70.9,6.3-106.5c-1.6-33-5.6-49.6-7.9-73c-3.3-34.6-2.6-84.5,16.8-148.4h70.4
	c7.5,30.2,12.1,61.1,13.8,92.3c2.1,40.1-1.6,63.4-3.4,101c-2,44.9-0.4,89.9,4.9,134.6"/>
<g>
	<defs>
		<path id="SVGID_6_" d="M201.9,366.5c-19.4,63.9-20.1,113.8-16.8,148.4c2.2,23.3,6.3,40,7.9,73c1.7,35.5-0.4,71.1-6.2,106.1h100.9
			c-5.2-44.5-6.8-89.4-4.8-134.2c1.7-37.6,5.5-61,3.4-101c-1.6-31.1-6.2-62-13.8-92.3L201.9,366.5z"/>
	</defs>
	<clipPath id="SVGID_7_">
		<use xlink:href="#SVGID_6_"  style="overflow:visible;"/>
	</clipPath>
	<g class="st8">
		<path class="st9" d="M122.5,310.1c0,0-15.3,21.8,25.8,50.4c14.3,9.9,45.4,59.8,92.8,58.2c22.3-0.8,49.1-19.2,92.4-66.3
			c15-16.4,25.8-33.2,27.5-52.6c2.2-25.4-7.7-42.7-44.7-57c-40-15.5-132.9-12.3-167.8,8.2C113.8,271.3,109.7,290.9,122.5,310.1"/>
	</g>
</g>
<path class="st7" d="M122.5,297.1c0,0-15.3,21.8,25.8,50.4c14.3,9.9,45.4,59.8,92.8,58.2c22.3-0.8,49.1-19.2,92.4-66.3
	c15-16.4,25.8-33.2,27.5-52.6c2.2-25.4-7.7-42.7-44.7-57c-40-15.5-132.9-12.3-167.8,8.2C113.8,258.3,109.7,277.9,122.5,297.1"/>
<g>
	<defs>
		<path id="SVGID_8_" d="M345.8,216.7h236.7c6.7,0,12.2,5.4,12.2,12.2V290c0,6.7-5.4,12.2-12.2,12.2H345.8
			c-6.7,0-12.2-5.4-12.2-12.2v-61.2C333.6,222.1,339,216.7,345.8,216.7z"/>
	</defs>
	<clipPath id="SVGID_9_">
		<use xlink:href="#SVGID_8_"  style="overflow:visible;"/>
	</clipPath>
	<g class="st10">
		
			<linearGradient id="SVGID_10_" gradientUnits="userSpaceOnUse" x1="-1248.1475" y1="-383.8629" x2="-1247.1475" y2="-383.8629" gradientTransform="matrix(-252.0092 282.8489 282.8489 252.0092 -205384.9688 449898.4688)">
			<stop  offset="0" style="stop-color:#F9BF28"/>
			<stop  offset="0.27" style="stop-color:#F9BC28"/>
			<stop  offset="0.48" style="stop-color:#F7B22A"/>
			<stop  offset="0.68" style="stop-color:#F4A12C"/>
			<stop  offset="0.86" style="stop-color:#F18930"/>
			<stop  offset="1" style="stop-color:#ED7233"/>
		</linearGradient>
		<polygon class="st11" points="291.1,264.4 449.1,87.1 637.1,254.5 479.1,431.8 		"/>
	</g>
</g>
<path class="st12" d="M594.2,289.1c0,0-17.5-10.9-26.9-14.4c-9.7-3.5-15.1-2.9-16.3,4.7c-1.2,7.2,4.8,12.8,15.3,18.6
	c3.5,1.9,6.4,3.4,8.5,4.4c2.8,1.3,4.9,3.8,5.8,6.7c0.2,0.5,2.9,5.2,8.4,14.5c5.3,9.1,16,11.3,22,15c11.7,7.2,12,23.7,14.4,61.6
	c0,0,4,63.2,18.8,101.6c2.2,5.6,6.5,15.1,15.5,18.9c4.1,1.7,8.5,2.2,12.8,1.7c19.2-2.2,23.3-21.3,20.9-40.4
	c-0.2-1.7-0.6-3.3-1.2-4.9c-11.9-29.2-37.3-152-43.3-166.7c-7.9-19.3-10.7-42.8-14-54.5s-8-14.4-12.3-13.9s-10,1.7-10,1.7l-18-10.4
	L594.2,289.1z"/>
<path class="st9" d="M322.2,291.7c3-4.2,5.4-9,5.6-14.1s-2.2-10.4-6.8-13.1c-3.2-1.9-6.6,2.5-10.2,1.4c-9.7-3.2-16.5-11.4-25.9-15.3
	c-12-4.9-25.8-1.9-38.3,1.8c-12.5,3.7-25.5,7.9-38.3,5.3c-6.9-1.4-13.4-4.9-20.4-5.2c-14.2-0.6-25.4,6.4-33.8,17.1
	c-1.3,1.6-2.6,3.4-2.6,5.4c0,3.1,3.2,5.3,6.3,6.5s6.6,1.7,9,3.8c3.7,3.2,3.8,8.4,5.2,12.9c1.9,5.5,5.1,10.4,9.4,14.4
	c13.3,12.4,36.8,14.5,55.6,14.9C267.7,328.2,304.4,316.2,322.2,291.7"/>
<path class="st12" d="M290.4,316.3l-35.6,30.5c-9.6,8.2-23.7,8.2-33.3,0l-35.6-30.5l5.5-76.5l1.4-18.6h90.7l1.3,17.8L290.4,316.3z"
	/>
<path class="st13" d="M192.1,233.2c6.1,7.6,10,31,46.5,31c34.6,0,39.3-21.9,45.9-29.5c-1-12.7-1.6-11.7-2.5-24.4h-86.5L192.1,233.2z
	"/>
<path class="st13" d="M184.3,152.8c4.8,10.8,1.4,22.3-7.6,25.7s-20.3-2.4-25.1-13.2s-1.4-22.3,7.6-25.7S179.4,142,184.3,152.8"/>
<path class="st13" d="M291.5,152.8c-4.8,10.8-1.4,22.3,7.6,25.7s20.3-2.4,25.1-13.2s1.4-22.3-7.6-25.7S296.3,142,291.5,152.8"/>
<path class="st14" d="M264.5,318.2c1-2.5,2.9-4.5,5.4-5.6c6.9-3.5,15.2-2.6,17.8-2.4"/>
<path class="st14" d="M211.9,318.2c-1-2.5-2.9-4.5-5.4-5.6c-6.9-3.5-15.2-2.6-17.8-2.4"/>
<path class="st15" d="M89.7,693.7c-4.1-17.4-8.3-35.2-8.2-53.6c0.1-34.6,10-65.6,13.6-99.8c4.1-39.2-6.5-80.4,2.6-118.6"/>
<g>
	<defs>
		<path id="SVGID_11_" d="M400.8,310.1c-9,20.3-12.2,42.8-9,64.8c1.7,11.7,5.2,23.1,6.2,34.8c2,21.9-4.3,45.5,5.5,65.1
			c3,6,2.5,2.7,19.9,28.6c14.1,21,13.3,21.5,16.8,24.4c4.8,3.9,39.3,13.2,64.2-4c20-13.8,23.4-37.5,28.7-75.2
			c2.7-18.8,4.4-55.5-4.3-85c-4.8-16.2-13.9-25.1-13.5-38c0.1-2.3,0.5-9.5-3.6-16.3c-1.7-2.8-4-5.3-6.8-7.2
			C471.3,312.2,435.5,314.1,400.8,310.1"/>
	</defs>
	<clipPath id="SVGID_12_">
		<use xlink:href="#SVGID_11_"  style="overflow:visible;"/>
	</clipPath>
	<g class="st16">
		
			<linearGradient id="SVGID_13_" gradientUnits="userSpaceOnUse" x1="-1246.0675" y1="-391.5505" x2="-1245.0675" y2="-391.5505" gradientTransform="matrix(0 221.84 -221.84 0 -86398.4453 276742.3438)">
			<stop  offset="0" style="stop-color:#E84E7D"/>
			<stop  offset="1" style="stop-color:#E1242E"/>
		</linearGradient>
		<rect x="388.6" y="302.2" class="st17" width="149" height="238.8"/>
	</g>
</g>
<path class="st15" d="M428.8,511.4c-1.7-2.7-2.5-3.9-5.2-8.1c-16.4-26.5-16.9-22.6-19.9-28.6c-9.8-19.5-3.5-43.2-5.5-65.1
	c-1-11.8-4.5-23.2-6.2-34.8c-3.2-21.9-0.7-43.3,8.3-63.3"/>
<path class="st12" d="M384.1,306c-4.5-4.4-6.4-11.9-3-17.2c2.3-3.7,6.6-5.7,10.9-6.6c8.9-1.7,18.1,0.7,24.9,6.7
	c1.1,1.1,2.4,2.1,3.7,2.9c5.6,3.3,10.1,1.7,16.5,2.3c9.7,0.9,9.9,5.4,19.2,6.2c6.3,0.5,10-1.3,14.8-2.4c7.3-1.7,18.3-2.1,33.9,4.4
	c-7.7,2.6-15.6,4.7-23.5,6.3c-4.9,1-10.5,1.9-25.4,3.3c-17,1.7-34.1,2.1-51.1,1.2C397.7,312.5,389.7,311.3,384.1,306"/>
<path class="st12" d="M404.8,213.3c0,0-1.9,11.7,5.2,16.5s17,1.2,20.5-8.3s0.4-18.4-5.6-20.7S408.1,203.3,404.8,213.3"/>
<path class="st12" d="M432.3,216.5c0,0,1.6,11.7,9.8,13.7c8.2,2,16.5-5,16.9-15.2s-5-17.6-11.3-17.7S432.5,205.8,432.3,216.5"/>
<path class="st12" d="M460.6,221c0,0,5.3,10.3,13.6,9s13.8-11.2,10.9-20.9s-10.3-14.5-16.3-12S457.3,210.9,460.6,221"/>
<path class="st12" d="M494.1,228.5c0,0,4.4,8.5,11.3,7.4s11.4-9.3,9-17.3s-8.5-12-13.5-10S491.4,220.1,494.1,228.5"/>
<path class="st15" d="M29.9,436.8c-0.3,9.5,4.2,18.4,7.8,27.3s6.4,18.9,2.9,27.7"/>
<path class="st15" d="M406.2,549.1c2.1,13-0.7,26.3-7.8,37.4c-6.3,9.8-15.7,17.2-22.9,26.4c-8.3,10.7-13.4,23.6-17.9,36.4"/>
<path class="st15" d="M377.6,639c-1.7,11.8-7.6,22.6-16.7,30.4"/>
<path class="st15" d="M374.2,416.7c14.5,11,12.4,32.5,25.2,45.4"/>
<path class="st12" d="M309.8,120.4c0,0-5.5,61.8-12.1,92s-42.6,35.6-59.4,35.6s-48.1-4.9-57-33.4c-10.2-32.6-14.6-96.9-14.6-96.9
	s9.6-51.7,67.6-51.7S304.7,91.1,309.8,120.4"/>
<path class="st18" d="M235.5,168.9l-7.8,13.9c-0.6,1.1-0.8,2.5-0.4,3.7c1.3,4.5,7.6,4.6,12.4,4.7c0.3,0,0.6,0,0.8,0
	c7-0.5,10.9-8.3,7.6-14.5l-4.2-7.7C242.3,165.9,237.2,165.9,235.5,168.9"/>
<path class="st19" d="M208.6,166.6L208.6,166.6c-2.5,0-4.6-2.1-4.6-4.6v-8.5c0-2.5,2.1-4.6,4.6-4.6s4.6,2.1,4.6,4.6l0,0v8.5
	C213.2,164.5,211.1,166.6,208.6,166.6"/>
<path class="st20" d="M193.2,130.9c3.5-2.9,7.8-4.6,12.3-5.1c4.5-0.5,9,0.3,13,2.3"/>
<path class="st19" d="M269.2,166.6L269.2,166.6c-2.5,0-4.6-2.1-4.6-4.6v-8.5c0-2.5,2.1-4.6,4.6-4.6s4.6,2.1,4.6,4.6l0,0v8.5
	C273.8,164.5,271.8,166.6,269.2,166.6"/>
<path class="st21" d="M207.8,201.3c5.2,2.9,10.8,4.9,16.7,5.8c10.8,1.8,17.4,0.4,19.5-2.4"/>
<line class="st22" x1="215.4" y1="213.8" x2="220.1" y2="215"/>
<path class="st23" d="M212.5,157.8h-2c-1.2,0-2.2-1-2.2-2.2c0-1.2,1-2.2,2.2-2.2h2c1.2,0,2.2,1,2.2,2.2
	C214.7,156.8,213.7,157.8,212.5,157.8L212.5,157.8"/>
<path class="st23" d="M272.9,157.8h-2c-1.2,0-2.2-1-2.2-2.2c0-1.2,1-2.2,2.2-2.2h2c1.2,0,2.2,1,2.2,2.2
	C275.2,156.8,274.2,157.8,272.9,157.8"/>
<path class="st24" d="M178.8,143.2c1.2-2.5,2.3-5,3.2-7.6c1.3-4.5,0.6-9-0.1-13.5c-0.1-1.4-0.6-2.7-1.4-3.9c-2-2.2-6.3-2.3-9.9-2.1
	c-2.6,0-5.2,0.4-7.7,1c-2.5,0.7-6.7,2.9-7.5,4.8c-0.3,0.9-0.5,1.9-0.5,2.8c-0.4,12.3,2.8,24.5,9.3,35.1c2.5,4,9.2,11.5,10.1,3.1
	C175,156.2,176,149.6,178.8,143.2"/>
<path class="st20" d="M284.5,130.9c-3.5-2.9-7.8-4.6-12.3-5.1c-4.5-0.5-9,0.3-13,2.3"/>
<path class="st25" d="M410,218.9c2.1-1.1,4.5-1.5,6.9-1.1c2.6,0.6,4.9,2,6.7,3.9"/>
<path class="st25" d="M437.9,220.7c0.9-1,2-1.7,3.2-2.2c1.9-0.8,4-1.1,6.1-0.8c2.1,0.3,4,1.5,5.4,3.2"/>
<path class="st25" d="M464.4,219.4c2.1-2.2,5-3.4,8-3.3c3,0.2,5.8,1.7,7.7,4.1"/>
<path class="st25" d="M498.1,227.1c3.6-2.1,8.2-2,11.7,0.3"/>
<path class="st26" d="M383.6,294.2c8,3.7,17.5,2.7,24.5-2.7"/>
<path class="st26" d="M419.9,292.3c3.2,1.8,5.6,4.6,7,8"/>
<path class="st26" d="M456.2,301.2c3.2-0.1,6.3,0.8,8.9,2.5"/>
<path class="st24" d="M296.8,143.2c-1.2-2.5-2.3-5-3.2-7.6c-1.3-4.5-0.6-9,0.1-13.5c0.1-1.4,0.6-2.7,1.4-3.9c2-2.2,6.3-2.3,9.9-2.1
	c2.6,0,5.2,0.4,7.7,1c2.5,0.7,6.7,2.9,7.5,4.8c0.3,0.9,0.5,1.9,0.5,2.8c0.4,12.3-2.8,24.5-9.3,35.1c-2.5,4-9.2,11.5-10.1,3.1
	C300.5,156.2,299.6,149.6,296.8,143.2"/>
<g>
	<defs>
		<path id="SVGID_14_" d="M205.3,15.9c-10.2-6.5-25.8-2.2-32.1,8.1c-3,5-4,10.9-6.8,16c-6.9,12.7-24.2,19.4-26,33.7
			c-1,8,3.5,15.7,4.3,23.7c0.4,3.8-0.4,8.1-3.3,10.6s-8.4,1.8-9.6-1.9c-1.7,6.4,0,13.2,4.4,18c4.7,4.8,11.4,6.9,18,5.6
			c4.3-0.9,8.1-3.2,12.1-4.8c5-1.9,10.3-2.7,15.6-2.3c6.5,0.5,12.9,2.8,19.3,2.3c6.5-0.5,12.5-3.6,16.6-8.6
			c5.3-6.5,6.9-15.6,12.4-22c4.5-5.2,11.3-8,18.1-8.5s13.7,1.1,20,3.6c-1,3.4-1.4,6.9-1.4,10.5c0.6,12.4,7.5,23.7,18.3,29.9
			c10.9,6,24,6.1,35,0.3c10.9-6,18.1-17,19.3-29.3c-1.6,1.9-4.6,1.2-6.8,0.1c-2.2-1.2-3.9-3.1-4.9-5.5c-3.4-6.7-3.4-14.6-3.2-22.2
			s0.6-15.3-2-22.4s-9.4-13.2-16.9-12.6c2.6-2.1,3.6-5.5,2.8-8.6c-3.5,4.2-9.6,5-14.2,2c-2.1-1.5-3.6-3.7-5.5-5.4
			c-5.5-4.8-14.7-5-19.5,0.6c-6.8-7.3-14.7-14.1-24.3-16.9c-7.4-2.2-15.2-1.9-22.9-2.4S206.5,5.3,200.9,0
			C198.3,5.7,200.1,12.4,205.3,15.9"/>
	</defs>
	<clipPath id="SVGID_15_">
		<use xlink:href="#SVGID_14_"  style="overflow:visible;"/>
	</clipPath>
	<g class="st27">
		
			<linearGradient id="SVGID_16_" gradientUnits="userSpaceOnUse" x1="-1246.0675" y1="-394.9838" x2="-1245.0675" y2="-394.9838" gradientTransform="matrix(0 134.35 -134.35 0 -52831.0156 167404.7031)">
			<stop  offset="0" style="stop-color:#684430"/>
			<stop  offset="1" style="stop-color:#2C1C12"/>
		</linearGradient>
		
			<linearGradient id="SVGID_17_" gradientUnits="userSpaceOnUse" x1="129.8025" y1="239.705" x2="340.3225" y2="239.705" gradientTransform="matrix(1 0 0 -1 0 307.6)">
			<stop  offset="0" style="stop-color:#684430"/>
			<stop  offset="0.38" style="stop-color:#66422F"/>
			<stop  offset="0.59" style="stop-color:#5D3D2B"/>
			<stop  offset="0.76" style="stop-color:#503424"/>
			<stop  offset="0.91" style="stop-color:#3C271A"/>
			<stop  offset="1" style="stop-color:#2C1C12"/>
		</linearGradient>
		<rect x="130.3" y="0" class="st28" width="209.5" height="135.9"/>
	</g>
</g>
<path class="st1" d="M191.4,23.4c-4.2,0-7.7,3.4-9.6,7.1s-2.5,8-3.9,11.9c-2.3,6.1-6.4,11.3-11.8,14.8"/>
<path class="st1" d="M177.4,55.1c-0.8,3.5-4.1,5.7-7.1,7.7s-6.1,4.7-6.3,8.3"/>
<path class="st1" d="M269.6,34.2c4.7-4.8,12.2-5.3,17.4-1.2"/>
<path class="st1" d="M269.3,41.5c3.2-1.9,7.2-1.5,9.9,1.1"/>
<path class="st1" d="M292.3,118.9c5.1,3.9,11.5,5.6,17.9,4.6c6.3-1,11.9-4.9,15.1-10.4"/>
<path class="st1" d="M311.6,105.3c4.5,4.2,11.5,4.1,15.9-0.2"/>
<path class="st1" d="M147.9,120.3c2.6,1.4,5.8,1,8.5,0s5.2-2.6,7.9-3.8c5-2.2,10.5-2.8,15.8-1.8"/>
<path class="st1" d="M139.1,113.9c2.5,1.2,5.4,1.3,8.1,0.3c2.6-1,4.5-3.5,4.7-6.3"/>
<path class="st1" d="M264.2,36.9c-0.3-4.3-3.3-7.8-7.5-8.9"/>
<path class="st1" d="M259.4,58.7c-3.2-2.6-7-4.2-11.1-4.6c-4.1-0.4-8.1,1-11.2,3.7c-2.9,2.8-4.3,6.8-6.1,10.4s-4.7,7.2-8.8,7.8"/>
<path class="st1" d="M220.6,70.3c-6.5,0.5-12.2,4.6-14.8,10.6"/>
<path class="st29" d="M275.8,382.9c12,12.6,15.5,31.2,14.9,48.5s-4.6,34.5-5.4,51.8s2.2,35.9,13.8,49"/>
<path class="st29" d="M197.8,382.9c-10.9,12.5-17.4,28.2-18.5,44.7c-1.8,27.3,11.4,54.2,8.1,81.4c-3.3,27-22.5,53.6-13.2,79.1"/>
<path class="st15" d="M396.2,342.1c24.6,2.7,49.6,2,74-2.2"/>
<path class="st15" d="M489.3,335.9c7.3-1.3,14.2-4,20.4-8"/>
<path class="st12" d="M829.3,235.5c2.5-2.1,6.3-1.7,8.4,0.9c0.9,1.1,1.4,2.6,1.3,4c-1,21.5-1.9,63.5,4.1,84c0.5,1.7,0.2,3.6-0.9,5
	c-8.5,11.6-42,69.2-72.3,76.1c-9,2.1-14.1-1-12.4-16.8c1.7-15.6,5.5-32.7,14.7-49.9c0.4-0.7,0.6-1.6,0.7-2.4
	c1.1-17.1,0.8-34.2-0.7-51.2c-0.2-2,0.6-3.9,2.2-5.2L829.3,235.5z"/>
<path class="st13" d="M772.5,288.6l1,19.8c0,0,59.1,0,67.4-76.4L772.5,288.6z"/>
<path class="st12" d="M725.7,158.8c0,0-21.2,70.6,9.7,122.5c2.2,3.6,5.4,6.7,9.1,8.8c3.8,1.9,7.9,2.9,12.2,3
	c25.2,1,67.1-12.7,82.3-60.6c30.1-34.4,36.9-75.2,20.3-97.2c-12.1-16-34.4-19.4-48.2-20.9C761.9,109.2,736.1,129.1,725.7,158.8"/>
<path class="st12" d="M835.9,203.2c-1.3,10.1-5.3,24.2,3,29.8s20.4,1.3,27-9.6s5.3-24.2-3-29.8S842.5,192.3,835.9,203.2"/>
<path class="st18" d="M746.5,230.5c-1,0.9-2.5,0.8-3.4-0.2c0,0-0.1-0.1-0.1-0.1c-1.3-1.7-2.5-3.5-3.6-5.3c-0.3-0.5-0.6-1-0.6-1.6
	c0.1-0.9,0.5-1.7,1.1-2.3c4-4.8,7.8-13.7,10.8-20.4c0.3-0.7,1.2-1,1.8-0.7c0.4,0.2,0.7,0.5,0.8,0.9c1,5.3,2.1,14.8,1.2,18.8
	S749.2,228.1,746.5,230.5"/>
<path class="st19" d="M734.4,205.9L734.4,205.9c-2.5-0.5-4.1-2.9-3.7-5.3l1.5-8.3c0.7-2.4,3.3-3.8,5.7-3.1c2.1,0.6,3.5,2.6,3.3,4.8
	l-1.5,8.3C739.2,204.7,736.8,206.3,734.4,205.9"/>
<path class="st19" d="M785.6,205.9L785.6,205.9c-2.5-0.5-4.1-2.9-3.7-5.3l1.5-8.3c0.7-2.4,3.3-3.8,5.7-3.1c2.1,0.6,3.5,2.6,3.3,4.8
	l-1.5,8.3C790.5,204.7,788.1,206.3,785.6,205.9"/>
<path class="st23" d="M733.9,197.9l-2-0.4c-1.2-0.2-2.1-1.3-1.9-2.5c0.2-1.2,1.3-2.1,2.5-1.9c0.1,0,0.2,0,0.2,0l2,0.4
	c1.2,0.3,1.9,1.5,1.6,2.7C736,197.3,735,198,733.9,197.9"/>
<path class="st23" d="M784.8,197.9l-2-0.4c-1.2-0.2-2.1-1.3-1.9-2.5c0.2-1.2,1.3-2.1,2.5-1.9c0.1,0,0.2,0,0.2,0l2,0.4
	c1.2,0.3,1.9,1.5,1.6,2.7C787,197.3,786,198,784.8,197.9"/>
<path class="st30" d="M737.8,177.6c-2.4-2.3-5.6-3.6-8.9-3.8c-3.2-0.4-6.4,0.4-9.1,2.1"/>
<path class="st31" d="M781.7,177.5c4.5-2,9.5-2.8,14.4-2.1c6.5,0.9,10.2,4.3,12.1,5.8"/>
<path class="st32" d="M845.8,214.5c2.5,0.3,4.8-1.4,6.2-3.4s2.4-4.4,3.7-6.4c1-1.5,2.6-3,4.4-2.6c1.2,0.4,2.3,1.2,3,2.3"/>
<path class="st32" d="M854.5,207.3c4,3.2,4.6,9.1,1.4,13.1c-1.7,2.1-4.2,3.4-6.9,3.5"/>
<path class="st33" d="M773.8,241.8c1.6,1,1.6,3.2,1.5,4.4c-0.4,2.9-1.6,5.6-3.4,7.9c-3.6,4.7-9.2,7.4-15,7.3
	c-2.2,0-7.9,0.1-12.8-3.7c-2.5-2.2-4.4-4.9-5.5-8c-0.6-1.8-1.2-4.8,0.2-6.5c1.9-2.3,5.8-1.1,12.3-0.5
	C763.3,243.7,770.3,239.6,773.8,241.8z"/>
<path class="st34" d="M772.3,243.8c1.5,1,1.5,3.2,1.4,4.4c-0.4,2.9-1.5,5.6-3.3,7.9c-1.9,2.6-4.4,4.6-7.3,5.9
	c-2.2,0.9-4.6,1.4-7.1,1.4c-4.4,0.2-8.7-1.1-12.3-3.7c-1.6-1.2-6.1-4.8-6.5-10c-0.1-0.9-0.2-3.2,1.4-4.6c2.8-2.4,6.6-1,11.7-0.5
	C762.2,245.7,768.9,241.6,772.3,243.8z"/>
<g>
	<defs>
		<path id="SVGID_18_" d="M773.8,241.8c1.6,1,1.6,3.2,1.5,4.4c-0.4,2.9-1.6,5.6-3.4,7.9c-3.6,4.7-9.2,7.4-15,7.3
			c-2.2,0-7.9,0.1-12.8-3.7c-2.5-2.2-4.4-4.9-5.5-8c-0.6-1.8-1.2-4.8,0.2-6.5c1.9-2.3,5.8-1.1,12.3-0.5
			C763.3,243.7,770.3,239.6,773.8,241.8z"/>
	</defs>
	<clipPath id="SVGID_19_">
		<use xlink:href="#SVGID_18_"  style="overflow:visible;"/>
	</clipPath>
	<g class="st35">
		<path class="st18" d="M747.1,259.9c1.7-1.7,3.6-3.2,5.6-4.6c3.4-2.3,7.2-4.1,11.2-5.1c3.7-0.9,7.5-1.2,11.3-0.9
			c-2.1,5.4-6.5,9.7-12,11.7C757.9,263.1,752,262.6,747.1,259.9z"/>
	</g>
</g>
<path class="st36" d="M752.1,268.6c4,1.7,11.1,0.8,14.7-1.5"/>
<path class="st36" d="M807.5,348.4c0.8-1.9,2.4-3.4,4.3-4.3c1.9-0.8,3.9-1.4,5.9-1.8l6.2-1.3"/>
<path class="st36" d="M773.8,341c3.8-0.1,7.2,2.4,8,6.1"/>
<path class="st4" d="M838.5,529.7c0.3,6.9-4.2,13.1-9.8,17.2s-12.1,6.5-18.1,9.9s-11.7,8.1-13.8,14.7"/>
<path class="st4" d="M853.6,621.6c2.6-21.3,16.7-39.1,29.6-56.2c13-17.1,25-36.2,27-57.6"/>
<path class="st4" d="M760.5,414.2c6.3,1.9,13.2,0.7,19.2-1.9s11.4-6.5,16.7-10.4"/>
<path class="st4" d="M719.1,409.2c-2.6,8.2-3.7,16.8-3.2,25.4"/>
<path class="st13" d="M663.4,490.6c-4.7-19-7.4-37.1-11-56.3c-1.4-7.7-2.7-15.5-5.8-22.6c-2.5-5.6-6-10.5-9.1-15.8
	c-7.3-12.3-8-21.4-6.4-35.7s12.5-29,26.4-32.4c0.7,7.8-0.8,10.6,2.9,17.6c15.7,29.9,27.5,63.1,25.7,96.8c-0.8,13.7-3.7,27.5-1.1,41
	c1.5,7.5,3.3,13.7,7.9,19.8c0.7,0.9-3.9,10-5.3,11.4c-4.3,4.3-6.4,7.2-11.3,4.2C669.7,514.5,665.1,497.5,663.4,490.6z"/>
<path class="st12" d="M930.7,427.2c0,0-137.9,130.4-174.5,133c-68,4.8-102.8-158.4-102.8-158.4s-31.1-34.6-20.7-60.3
	c4.7-11.6,17.8-23,27.2-24c2.4-0.3-12.4-45.4-10.9-46.7c8.6-7.2,15.7-5.3,37.7,59.5c0,0,15.6,6.3,15.9,23.4s-4.9,37.7-4.9,37.7
	s48.2,106.6,58.7,100.2s95.9-107.8,95.9-107.8L930.7,427.2z"/>
<linearGradient id="SVGID_20_" gradientUnits="userSpaceOnUse" x1="866.4584" y1="-27.4032" x2="866.4584" y2="-209.3568" gradientTransform="matrix(1 0 0 -1 0 307.6)">
	<stop  offset="0" style="stop-color:#F9BF28"/>
	<stop  offset="1" style="stop-color:#ED7233"/>
</linearGradient>
<path class="st37" d="M829.5,373.5c-5.9,11.8-8.6,25.4-17,35.5c-8.1,9.7-10.7,11.3-15.9,17c-3.6,4-7.3,11.4-4.3,14.9
	c24.4,27.6,24.4,27.6,52.7,74.7c3,4.9,16.5-3.8,31.6-17.6c34.2-31.3,40.4-32.3,46.8-41.8c5.5-8.3,16.2-24.5,17.9-47.9
	c1.2-15.7-2-31.5-9.3-45.5c-10.1-19.3-31.7-31.6-53.7-26.7C857.6,340.7,839,354.6,829.5,373.5z"/>
<linearGradient id="SVGID_21_" gradientUnits="userSpaceOnUse" x1="715.2519" y1="80.8731" x2="912.8726" y2="80.8731" gradientTransform="matrix(1 0 0 -1 0 307.6)">
	<stop  offset="0" style="stop-color:#684430"/>
	<stop  offset="1" style="stop-color:#2C1C12"/>
</linearGradient>
<path class="st38" d="M891.8,273.5c-5.8-13.5-8.7-30.3-6.6-46c3.5-26.2,10.8-52.4,3.5-77.8c-2.4-8.5-8.5-22-16.1-31.4
	c-7-8.7-14.8-16.6-30.7-24.1c-25.7-12.2-50.5-12.2-73.5,3.3c-22.1-0.7-34.6,5.8-42.8,15c-13.5,15.3-10.3,38.6-9,51l12.9,0.4
	c1.7-12.5,9.3-23.3,20.4-29.3c-4.8,7.8-6.3,17.2-4.2,26.1c0.2,1.4,0.8,2.6,1.8,3.6c1.3,0.9,2.8,1.4,4.4,1.4
	c13.9,1.2,27.9,0.5,41.5-2.2c-3.4-12.3,0.3-25.4,9.5-34.1c-5.5,16.3,3.3,33.9,19.6,39.4c3.3,1.1,6.8,1.7,10.3,1.6
	c2.6,16.5,2.6,33.4-0.1,49.9c3.2,1.2,5.5-3,6.8-6.2c2.9-7.4,7.8-13.8,14.3-18.4c3.4-2.4,8.1-1.7,10.6,1.7c0,0.1,0.1,0.1,0.1,0.2
	c4.4,6.5,4.8,15,1.1,22.7c-4.8,10-17,15.7-27.7,12.9c1.5,14.8-7.8,31.5-13.5,45.2c-4.3,10.5-7,22-5.5,33.2
	c1.2,9.5,4.9,19.5,9.5,27.9s11.6,15.9,20.6,19.2c14.3,5.3,31.3-0.6,45.1,6.1c2.9,1.4,5.7,3.4,8.9,3.2c6-0.4,8.7-7.7,9.5-13.7
	C915.8,325.9,903.1,299.9,891.8,273.5z"/>
<path class="st1" d="M822.4,106c7.2,1.1,14,4.4,19.3,9.5"/>
<path class="st1" d="M815.3,98.6c18-0.3,35,8.7,44.8,23.8"/>
<path class="st1" d="M762.2,104.5c-11.5,0.2-22.1,6.1-28.2,15.8"/>
<path class="st1" d="M746.3,116c-4.5,2.7-8.2,6.6-10.7,11.3"/>
<path class="st1" d="M815.7,154.9c9.1,8.3,21.4,12.2,33.6,10.4"/>
<path class="st1" d="M764.1,127.7c-5.8,4.1-9,11.1-10.3,18.1c-0.8,4.1-1,8.3-0.7,12.4"/>
<path class="st1" d="M763.4,138.6c-3,6-3.5,12.9-1.3,19.3"/>
<path class="st1" d="M841.2,176.9c-0.1,2.8,0.1,5.6,0.6,8.3c0.6,2.1,0.9,4.2,1.1,6.3c0,2.9-1.1,5.7-3.2,7.8"/>
<path class="st1" d="M846.8,186.1c1.1,3.2,0.9,6.8-0.6,9.8"/>
<path class="st1" d="M881.7,239.7c-0.3,8.9-4.3,17.3-6.8,25.8s-3,18.8,2.8,25.6"/>
<path class="st1" d="M894.8,326.4c6.9,7.3,10.4,17.1,9.7,27.1"/>
<path class="st1" d="M838,285c-2.4,8.3-4.1,17-2.8,25.5s6.1,16.9,13.9,20.6"/>
<path class="st1" d="M844,314.5c1.1,5.5,6.9,8.4,10.9,12.2c4.3,4.1,6.9,9.6,7.4,15.6"/>
<path class="st39" d="M777,673.2c-0.9,7-0.5,14.3,4,19.7"/>
<path class="st40" d="M791.5,674.3l0.6,18.6"/>
<path class="st41" d="M840.7,227.5c-7.6,2.3-11.9,9-10.2,16.7c0.3,1.7,1.1,3.3,2.1,4.7c3.5,4.4,11,4.2,15,0.3s4.5-10.6,2.1-15.7"/>
</svg>
