<svg width="27" height="23" viewBox="0 0 27 23" fill="none" xmlns="http://www.w3.org/2000/svg">
<path d="M16.8721 4.46972C16.8721 6.52406 15.2068 8.18944 13.1524 8.18944C11.0981 8.18944 9.4327 6.52406 9.4327 4.46972C9.4327 2.41537 11.0981 0.75 13.1524 0.75C15.2068 0.75 16.8721 2.41537 16.8721 4.46972Z" stroke="#2A393F" stroke-width="1.5"/>
<path d="M24.2702 6.11377C24.2702 7.26014 23.3409 8.18945 22.1945 8.18945C21.0481 8.18945 20.1188 7.26014 20.1188 6.11377C20.1188 4.9674 21.0481 4.03809 22.1945 4.03809C23.3409 4.03809 24.2702 4.9674 24.2702 6.11377Z" stroke="#2A393F" stroke-width="1.5"/>
<path d="M6.18567 6.11377C6.18567 7.26014 5.25636 8.18945 4.10999 8.18945C2.96362 8.18945 2.0343 7.26014 2.0343 6.11377C2.0343 4.9674 2.96362 4.03809 4.10999 4.03809C5.25636 4.03809 6.18567 4.9674 6.18567 6.11377Z" stroke="#2A393F" stroke-width="1.5"/>
<path d="M3.48843 11.4364C3.62961 11.4364 3.76362 11.4355 3.8914 11.4346C4.67226 11.4293 5.22019 11.4255 5.74517 11.6429C3.80421 14.0686 3.85278 16.6931 3.90689 19.6162C3.91246 19.9171 3.91809 20.2213 3.92161 20.5287C3.79516 20.5282 3.64674 20.5274 3.47228 20.5263C3.01856 20.5236 2.3887 20.5199 1.51097 20.5199C1.0892 20.5199 0.75 20.178 0.75 19.7646V14.1538C0.75 12.6606 1.97487 11.4364 3.48843 11.4364Z" stroke="#2A393F" stroke-width="1.5"/>
<path d="M8.96133 12.6843L8.96138 12.6843L8.96989 12.6773C10.4251 11.4761 12.13 11.2731 14.3024 11.4531C16.6511 11.7206 19.338 13.729 19.338 16.9036C19.338 17.9117 19.3408 18.6877 19.3429 19.2913C19.3456 20.0772 19.3473 20.5708 19.3407 20.9036C19.3348 21.1995 19.3225 21.3135 19.3115 21.3704C19.3051 21.4035 19.3023 21.4142 19.2497 21.5344C19.1052 21.8536 19.0412 21.9082 18.961 21.9529C18.8229 22.0299 18.5232 22.1168 17.7569 22.1618C16.839 22.2156 15.4641 22.2049 13.3078 22.1881C11.9045 22.1771 10.1703 22.1636 8.01569 22.1636C7.4352 22.1636 6.9665 21.688 6.9665 21.1144C6.9665 20.539 6.95487 19.997 6.94383 19.4818C6.91749 18.2534 6.89442 17.1776 7.03996 16.1655C7.23552 14.8057 7.73053 13.6701 8.96133 12.6843Z" stroke="#2A393F" stroke-width="1.5"/>
<path d="M22.3966 19.5698C22.4472 16.5428 22.4892 14.0354 20.5611 11.642C21.0845 11.4257 21.6314 11.4293 22.4152 11.4346C22.5423 11.4354 22.6758 11.4363 22.8164 11.4363C24.3299 11.4363 25.5548 12.6604 25.5548 14.1537V19.711C25.5548 20.1536 25.1915 20.5198 24.7399 20.5198C23.8865 20.5198 23.273 20.5236 22.8298 20.5264C22.656 20.5275 22.5083 20.5285 22.3827 20.5289C22.386 20.2033 22.3913 19.8837 22.3966 19.5698Z" stroke="#2A393F" stroke-width="1.5"/>
</svg>
