<svg width="33" height="28" viewBox="0 0 33 28" fill="none" xmlns="http://www.w3.org/2000/svg">
<path d="M16.0454 10.9057C19.0569 10.9057 21.4982 8.46438 21.4982 5.45285C21.4982 2.44132 19.0569 0 16.0454 0C13.0338 0 10.5925 2.44132 10.5925 5.45285C10.5925 8.46438 13.0338 10.9057 16.0454 10.9057Z" fill="#2A393F"/>
<path d="M27.0763 10.9056C28.9801 10.9056 30.5235 9.36227 30.5235 7.45844C30.5235 5.5546 28.9801 4.01123 27.0763 4.01123C25.1725 4.01123 23.6291 5.5546 23.6291 7.45844C23.6291 9.36227 25.1725 10.9056 27.0763 10.9056Z" fill="#2A393F"/>
<path d="M5.01401 10.9056C6.91785 10.9056 8.46122 9.36227 8.46122 7.45844C8.46122 5.5546 6.91785 4.01123 5.01401 4.01123C3.11016 4.01123 1.5668 5.5546 1.5668 7.45844C1.5668 9.36227 3.11016 10.9056 5.01401 10.9056Z" fill="#2A393F"/>
<path d="M8.41056 14.0013C7.05362 12.8896 5.82472 13.0367 4.25574 13.0367C1.90913 13.0367 0 14.9346 0 17.2668V24.1117C0 25.1245 0.826703 25.9481 1.84332 25.9481C6.2323 25.9481 5.70356 26.0275 5.70356 25.7588C5.70356 20.9085 5.12907 17.3516 8.41056 14.0013Z" fill="#2A393F"/>
<path d="M17.5375 13.0618C14.797 12.8332 12.415 13.0644 10.3604 14.7603C6.92218 17.5143 7.58385 21.2224 7.58385 25.7588C7.58385 26.959 8.56035 27.9537 9.77879 27.9537C23.0087 27.9537 23.5352 28.3805 24.3197 26.6432C24.577 26.0556 24.5065 26.2424 24.5065 20.6218C24.5065 16.1576 20.6411 13.0618 17.5375 13.0618Z" fill="#2A393F"/>
<path d="M27.835 13.0366C26.2574 13.0366 25.0353 12.8909 23.6801 14.0012C26.9371 17.3265 26.3871 20.6408 26.3871 25.7586C26.3871 26.029 25.9482 25.9479 30.1816 25.9479C31.2346 25.9479 32.0907 25.0949 32.0907 24.0463V17.2666C32.0907 14.9344 30.1816 13.0366 27.835 13.0366Z" fill="#2A393F"/>
</svg>
