<svg id="Layer_1" data-name="Layer 1" xmlns="http://www.w3.org/2000/svg" viewBox="0 0 26.93 27.21"><defs><style>.cls-1{fill:none;stroke:#000;stroke-miterlimit:10;stroke-width:1.5px;}</style></defs><path class="cls-1" d="M13.1,10.1a4,4,0,0,0,1,2.5,3.32,3.32,0,0,0,2.5,1,4,4,0,0,0,2.5-1,3.32,3.32,0,0,0,1-2.5v-1a.52.52,0,0,1,.2-.4,1,1,0,0,1,1.4,0l2.2,2.2a3.47,3.47,0,0,1,1,2.5,3.55,3.55,0,0,1-1,2.5l-8,8.1a3.47,3.47,0,0,1-2.5,1,3.55,3.55,0,0,1-2.5-1L2.8,15.9a3.47,3.47,0,0,1-1-2.5,3.55,3.55,0,0,1,1-2.5L5,8.7A1,1,0,0,0,5,7.3.91.91,0,0,0,4.5,7c-.2,0-.3-.1-.5,0a4.48,4.48,0,0,1-2-.4A3.64,3.64,0,0,1,.4,5.2,3.78,3.78,0,0,1,0,3.1,4.06,4.06,0,0,1,.8,1.2,4.18,4.18,0,0,1,2.6.1,3.76,3.76,0,0,1,4.7.2,3.56,3.56,0,0,1,6.4,1.5a4.66,4.66,0,0,1,.6,2v.3c-.1.2,0,.3,0,.4s.1.3.2.4l.1.1a1.33,1.33,0,0,0,.8.3.91.91,0,0,0,.7-.3L13.3.2l4.5,4.5a1,1,0,0,1,0,1.4l-.1.1a.52.52,0,0,1-.4.2.6.6,0,0,1-.4.1h-.3a2.77,2.77,0,0,0-1.3.3,2.84,2.84,0,0,0-1.1.8,4.44,4.44,0,0,0-.8,1.1A3.19,3.19,0,0,0,13.1,10.1Z" transform="translate(1.03 1.21)"/></svg>