<?xml version="1.0" encoding="utf-8"?>
<!-- Generator: Adobe Illustrator 25.4.1, SVG Export Plug-In . SVG Version: 6.00 Build 0)  -->
<svg version="1.1" id="Layer_1" xmlns="http://www.w3.org/2000/svg" xmlns:xlink="http://www.w3.org/1999/xlink" x="0px" y="0px"
	 viewBox="0 0 24.9 25" style="enable-background:new 0 0 24.9 25;" xml:space="preserve">
<style type="text/css">
	.st0{fill:#050505;}
</style>
<path class="st0" d="M13.1,10.1c0,0.9,0.4,1.8,1,2.5c0.7,0.7,1.5,1,2.5,1c0.9,0,1.8-0.4,2.5-1c0.7-0.7,1-1.5,1-2.5
	c0-0.2,0-0.4,0-0.5c0-0.2,0-0.3,0-0.5s0.1-0.3,0.2-0.4c0.2-0.2,0.4-0.3,0.7-0.3c0.3,0,0.5,0.1,0.7,0.3l2.2,2.2c0.7,0.7,1,1.6,1,2.5
	c0,1-0.4,1.9-1,2.5l-8,8.1c-0.7,0.7-1.6,1-2.5,1c-1,0-1.9-0.4-2.5-1l-8.1-8.1c-0.7-0.7-1-1.6-1-2.5c0-1,0.4-1.9,1-2.5L5,8.7
	C5.2,8.5,5.3,8.3,5.3,8S5.2,7.5,5,7.3C4.8,7.1,4.6,7,4.5,7C4.3,7,4.2,6.9,4,7C3.3,7,2.6,6.9,2,6.6C1.3,6.3,0.8,5.8,0.4,5.2
	C0.1,4.6-0.1,3.8,0,3.1s0.4-1.4,0.8-1.9c0.5-0.5,1.1-0.9,1.8-1.1S4,0,4.7,0.2s1.2,0.7,1.7,1.3C6.7,2.1,7,2.8,7,3.5
	c0,0.1,0,0.2,0,0.3C6.9,4,7,4.1,7,4.2c0.1,0.1,0.1,0.3,0.2,0.4l0.1,0.1C7.6,4.9,7.8,5,8.1,5c0.3,0,0.5-0.1,0.7-0.3l4.5-4.5l4.5,4.5
	c0.2,0.2,0.3,0.4,0.3,0.7c0,0.3-0.1,0.5-0.3,0.7l-0.1,0.1c-0.1,0.1-0.2,0.2-0.4,0.2c-0.1,0.1-0.3,0.1-0.4,0.1s-0.2,0-0.3,0
	c-0.5,0-0.9,0.1-1.3,0.3c-0.4,0.2-0.8,0.4-1.1,0.8c-0.3,0.3-0.6,0.7-0.8,1.1S13.1,9.6,13.1,10.1z"/>
</svg>
