<svg width="15" height="15" viewBox="0 0 15 15" fill="none" xmlns="http://www.w3.org/2000/svg">
<path d="M8.11632 4.13023L10.8698 6.88238L8.11632 4.13023ZM9.88696 1.70569L2.44173 9.15092C2.05703 9.53507 1.79467 10.0245 1.68771 10.5575L1 14L4.44246 13.311C4.97547 13.2044 5.46428 12.9431 5.84908 12.5583L13.2943 5.11305C13.518 4.88932 13.6955 4.62371 13.8166 4.33139C13.9377 4.03907 14 3.72577 14 3.40937C14 3.09296 13.9377 2.77966 13.8166 2.48734C13.6955 2.19502 13.518 1.92942 13.2943 1.70569C13.0706 1.48196 12.805 1.30448 12.5127 1.1834C12.2203 1.06232 11.907 1 11.5906 1C11.2742 1 10.9609 1.06232 10.6686 1.1834C10.3763 1.30448 10.1107 1.48196 9.88696 1.70569V1.70569Z" stroke="#2A393F" stroke-opacity="0.5" stroke-width="2" stroke-linecap="round" stroke-linejoin="round"/>
</svg>
