<?xml version="1.0" encoding="utf-8"?>
<!-- Generator: Adobe Illustrator 21.0.0, SVG Export Plug-In . SVG Version: 6.00 Build 0)  -->
<svg version="1.1" id="Layer_1" xmlns="http://www.w3.org/2000/svg" xmlns:xlink="http://www.w3.org/1999/xlink" x="0px" y="0px"
	 viewBox="0 0 25 25" style="enable-background:new 0 0 25 25;" xml:space="preserve">
<style type="text/css">
	.st0{clip-path:url(#SVGID_2_);}
	.st1{fill:#2A393F;}
</style>
<g>
	<defs>
		<rect id="SVGID_1_" width="25" height="25"/>
	</defs>
	<clipPath id="SVGID_2_">
		<use xlink:href="#SVGID_1_"  style="overflow:visible;"/>
	</clipPath>
	<g class="st0">
		<path class="st1" d="M24.7,23.2L18.5,17c1.7-2.1,2.5-4.7,2.3-7.4c-0.2-2.7-1.4-5.2-3.4-6.9c-2-1.8-4.6-2.8-7.3-2.7
			C7.5,0.1,4.9,1.2,3.1,3.1s-3,4.4-3.1,7.1c-0.1,2.7,0.9,5.3,2.7,7.3c1.8,2,4.3,3.2,6.9,3.4c2.7,0.2,5.3-0.6,7.4-2.3l6.2,6.2
			c0.2,0.2,0.5,0.3,0.8,0.3s0.6-0.1,0.8-0.3S25,24.2,25,24S24.9,23.4,24.7,23.2L24.7,23.2z M10.4,18.8c-1.6,0-3.3-0.5-4.6-1.4
			s-2.4-2.2-3.1-3.7s-0.8-3.2-0.5-4.8c0.3-1.6,1.1-3.1,2.3-4.3s2.6-2,4.3-2.3c1.6-0.3,3.3-0.2,4.8,0.5s2.8,1.7,3.7,3.1
			s1.4,3,1.4,4.6c0,2.2-0.9,4.3-2.4,5.9C14.8,17.9,12.6,18.8,10.4,18.8z"/>
	</g>
</g>
</svg>
